<svg width="659" height="179" viewBox="0 0 659 179" fill="none" xmlns="http://www.w3.org/2000/svg">
<path d="M8.96 124V34.4H34.304V103.904H77.056V124H8.96ZM85.933 124V54.624H110.253V124H85.933ZM98.093 46.944C93.6557 46.944 90.0717 45.7067 87.341 43.232C84.6103 40.7573 83.245 37.6853 83.245 34.016C83.245 30.3467 84.6103 27.2747 87.341 24.8C90.0717 22.3253 93.6557 21.088 98.093 21.088C102.53 21.088 106.114 22.2827 108.845 24.672C111.576 26.976 112.941 29.9627 112.941 33.632C112.941 37.472 111.576 40.672 108.845 43.232C106.2 45.7067 102.616 46.944 98.093 46.944ZM171.242 53.472C176.618 53.472 181.482 54.5813 185.834 56.8C190.186 58.9333 193.599 62.2613 196.074 66.784C198.634 71.3067 199.914 77.152 199.914 84.32V124H175.594V88.288C175.594 83.3387 174.57 79.7547 172.522 77.536C170.559 75.232 167.786 74.08 164.202 74.08C161.642 74.08 159.295 74.6773 157.162 75.872C155.029 76.9813 153.365 78.7307 152.17 81.12C150.975 83.5093 150.378 86.624 150.378 90.464V124H126.058V54.624H149.226V74.336L144.746 68.576C147.391 63.5413 151.018 59.7867 155.626 57.312C160.234 54.752 165.439 53.472 171.242 53.472ZM235.407 111.2L236.047 82.144L264.335 54.624H293.135L261.775 87.008L249.359 96.992L235.407 111.2ZM215.183 124V29.024H239.503V124H215.183ZM266.127 124L244.879 97.376L259.983 78.688L295.567 124H266.127Z" fill="#131213"/>
<path d="M343.16 125.152C334.968 125.152 327.8 123.616 321.656 120.544C315.597 117.387 310.861 113.12 307.448 107.744C304.12 102.283 302.456 96.096 302.456 89.184C302.456 82.272 304.077 76.128 307.32 70.752C310.648 65.2907 315.213 61.0667 321.016 58.08C326.819 55.008 333.347 53.472 340.6 53.472C347.427 53.472 353.656 54.88 359.288 57.696C364.92 60.4267 369.4 64.48 372.728 69.856C376.056 75.232 377.72 81.76 377.72 89.44C377.72 90.2933 377.677 91.2747 377.592 92.384C377.507 93.4933 377.421 94.5173 377.336 95.456H322.424V82.656H364.408L355.192 86.24C355.277 83.0827 354.68 80.352 353.4 78.048C352.205 75.744 350.499 73.952 348.28 72.672C346.147 71.392 343.629 70.752 340.728 70.752C337.827 70.752 335.267 71.392 333.048 72.672C330.915 73.952 329.251 75.7867 328.056 78.176C326.861 80.48 326.264 83.2107 326.264 86.368V90.08C326.264 93.4933 326.947 96.4373 328.312 98.912C329.763 101.387 331.811 103.307 334.456 104.672C337.101 105.952 340.259 106.592 343.928 106.592C347.341 106.592 350.243 106.123 352.632 105.184C355.107 104.16 357.539 102.624 359.928 100.576L372.728 113.888C369.4 117.557 365.304 120.373 360.44 122.336C355.576 124.213 349.816 125.152 343.16 125.152Z" fill="#45205C"/>
<path d="M385.96 124V34.4H428.328C438.227 34.4 446.931 36.2347 454.44 39.904C461.949 43.5733 467.795 48.736 471.976 55.392C476.243 62.048 478.376 69.984 478.376 79.2C478.376 88.3307 476.243 96.2667 471.976 103.008C467.795 109.664 461.949 114.827 454.44 118.496C446.931 122.165 438.227 124 428.328 124H385.96ZM411.304 103.776H427.304C432.424 103.776 436.861 102.837 440.616 100.96C444.456 98.9973 447.443 96.1813 449.576 92.512C451.709 88.7573 452.776 84.32 452.776 79.2C452.776 73.9947 451.709 69.5573 449.576 65.888C447.443 62.2187 444.456 59.4453 440.616 57.568C436.861 55.6053 432.424 54.624 427.304 54.624H411.304V103.776ZM526.91 125.152C518.718 125.152 511.55 123.616 505.406 120.544C499.347 117.387 494.611 113.12 491.198 107.744C487.87 102.283 486.206 96.096 486.206 89.184C486.206 82.272 487.827 76.128 491.07 70.752C494.398 65.2907 498.963 61.0667 504.766 58.08C510.569 55.008 517.097 53.472 524.35 53.472C531.177 53.472 537.406 54.88 543.038 57.696C548.67 60.4267 553.15 64.48 556.478 69.856C559.806 75.232 561.47 81.76 561.47 89.44C561.47 90.2933 561.427 91.2747 561.342 92.384C561.257 93.4933 561.171 94.5173 561.086 95.456H506.174V82.656H548.158L538.942 86.24C539.027 83.0827 538.43 80.352 537.15 78.048C535.955 75.744 534.249 73.952 532.03 72.672C529.897 71.392 527.379 70.752 524.478 70.752C521.577 70.752 519.017 71.392 516.798 72.672C514.665 73.952 513.001 75.7867 511.806 78.176C510.611 80.48 510.014 83.2107 510.014 86.368V90.08C510.014 93.4933 510.697 96.4373 512.062 98.912C513.513 101.387 515.561 103.307 518.206 104.672C520.851 105.952 524.009 106.592 527.678 106.592C531.091 106.592 533.993 106.123 536.382 105.184C538.857 104.16 541.289 102.624 543.678 100.576L556.478 113.888C553.15 117.557 549.054 120.373 544.19 122.336C539.326 124.213 533.566 125.152 526.91 125.152ZM590.761 124L562.217 54.624H587.177L609.961 112.608H597.417L621.353 54.624H644.521L615.849 124H590.761Z" fill="#131213"/>
</svg>
