<svg width="975" height="718" viewBox="0 0 975 718" fill="none" xmlns="http://www.w3.org/2000/svg">
<path d="M800.274 726.276L813.622 323.675C813.975 313.844 810.373 304.288 803.593 297.069L638.613 120.038C630.138 110.963 617.708 106.425 605.208 107.938L134.562 162.938C120.508 164.588 108.502 173.525 103.205 186.244L14.3587 399.301C12.1693 404.526 11.2512 410.094 11.6043 415.663L29.8962 726.276H800.274Z" fill="#F4F4F4"/>
<path d="M362.116 152.418V421.643C362.116 425.081 365.012 427.9 368.543 427.9H768.987C772.518 427.9 775.414 425.081 775.414 421.643V152.418C775.414 148.981 772.518 146.162 768.987 146.162H368.543C364.941 146.162 362.116 148.981 362.116 152.418Z" fill="#45205C"/>
<path opacity="0.3" d="M362.116 152.418V421.643C362.116 425.081 365.012 427.9 368.543 427.9H768.987C772.518 427.9 775.414 425.081 775.414 421.643V152.418C775.414 148.981 772.518 146.162 768.987 146.162H368.543C364.941 146.162 362.116 148.981 362.116 152.418Z" fill="white"/>
<path d="M357.243 152.418V421.643C357.243 425.081 360.139 427.9 363.67 427.9H764.114C767.645 427.9 770.541 425.081 770.541 421.643V152.418C770.541 148.981 767.645 146.162 764.114 146.162H363.67C360.139 146.162 357.243 148.981 357.243 152.418Z" fill="#45205C"/>
<path opacity="0.7" d="M357.243 152.418V421.643C357.243 425.081 360.139 427.9 363.67 427.9H764.114C767.645 427.9 770.541 425.081 770.541 421.643V152.418C770.541 148.981 767.645 146.162 764.114 146.162H363.67C360.139 146.162 357.243 148.981 357.243 152.418Z" fill="white"/>
<path d="M372.569 163.419C374.758 163.419 376.594 161.631 376.594 159.5C376.594 157.369 374.758 155.581 372.569 155.581C370.379 155.581 368.543 157.369 368.543 159.5C368.543 161.631 370.379 163.419 372.569 163.419Z" fill="#45205C"/>
<path d="M386.976 163.419C389.166 163.419 391.002 161.631 391.002 159.5C391.002 157.369 389.166 155.581 386.976 155.581C384.787 155.581 382.951 157.369 382.951 159.5C382.951 161.631 384.787 163.419 386.976 163.419Z" fill="#61656D"/>
<path d="M401.313 163.419C403.503 163.419 405.339 161.631 405.339 159.5C405.339 157.369 403.503 155.581 401.313 155.581C399.124 155.581 397.288 157.369 397.288 159.5C397.288 161.631 399.124 163.419 401.313 163.419Z" fill="#21252B"/>
<path d="M706.695 206.181H483.52C481.967 206.181 480.766 204.944 480.766 203.5V190.712C480.766 189.2 482.037 188.031 483.52 188.031H706.695C708.249 188.031 709.45 189.269 709.45 190.712V203.5C709.52 205.012 708.249 206.181 706.695 206.181Z" fill="#45205C"/>
<path opacity="0.5" d="M706.695 206.181H483.52C481.967 206.181 480.766 204.944 480.766 203.5V190.712C480.766 189.2 482.037 188.031 483.52 188.031H706.695C708.249 188.031 709.45 189.269 709.45 190.712V203.5C709.52 205.012 708.249 206.181 706.695 206.181Z" fill="white"/>
<path d="M700.481 194.563C699.139 193.256 696.879 193.256 695.466 194.563C694.054 195.938 694.054 198.069 695.466 199.444C696.737 200.681 698.715 200.75 700.057 199.719L702.034 201.644L702.741 200.956L700.763 199.031C701.822 197.725 701.752 195.8 700.481 194.563ZM699.845 198.756C698.856 199.719 697.232 199.719 696.172 198.756C695.184 197.794 695.184 196.213 696.172 195.25C697.161 194.288 698.786 194.288 699.774 195.25C700.834 196.213 700.834 197.794 699.845 198.756Z" fill="#45205C"/>
<path d="M742.432 194.15H731.979V195.182H742.432V194.15Z" fill="#45205C"/>
<path d="M742.432 197.725H731.979V198.756H742.432V197.725Z" fill="#45205C"/>
<path d="M742.432 201.3H731.979V202.331H742.432V201.3Z" fill="#45205C"/>
<path d="M490.583 401.775H389.519C387.259 401.775 385.352 399.987 385.352 397.718V229.625C385.352 227.425 387.188 225.568 389.519 225.568H490.654C492.914 225.568 494.821 227.356 494.821 229.625V397.787C494.75 399.987 492.914 401.775 490.583 401.775Z" fill="white"/>
<path d="M440.016 301.469C457.389 301.469 471.514 287.719 471.514 270.806C471.514 253.894 457.389 240.144 440.016 240.144C422.642 240.144 408.517 253.894 408.517 270.806C408.517 287.719 422.642 301.469 440.016 301.469Z" fill="#45205C"/>
<path opacity="0.3" d="M440.016 301.469C457.389 301.469 471.514 287.719 471.514 270.806C471.514 253.894 457.389 240.144 440.016 240.144C422.642 240.144 408.517 253.894 408.517 270.806C408.517 287.719 422.642 301.469 440.016 301.469Z" fill="white"/>
<path d="M446.725 281.944L430.693 281.737L425.75 283.044C426.95 286.344 428.857 292.05 430.623 300.094C433.589 300.987 436.767 301.469 440.016 301.469C443.9 301.469 447.643 300.781 451.104 299.544C449.903 291.362 449.056 285.312 448.915 282.562L446.725 281.944Z" fill="white"/>
<path opacity="0.3" d="M446.725 281.944L430.693 281.737L425.75 283.044C426.95 286.344 428.857 292.05 430.623 300.094C433.589 300.987 436.767 301.469 440.016 301.469C443.9 301.469 447.643 300.781 451.104 299.544C449.903 291.362 449.056 285.312 448.915 282.562L446.725 281.944Z" fill="white"/>
<path d="M446.584 263.381C446.584 263.381 432.388 254.719 431.894 265.306L431.682 268.056L430.693 281.944C430.693 282.356 430.834 282.7 431.046 282.975L439.239 288.406C439.521 288.544 439.804 288.544 440.016 288.337L446.089 283.25C446.513 282.906 446.725 282.356 446.654 281.875L445.736 273.625C445.877 272.869 446.019 272.112 446.019 271.15C446.16 267.162 446.584 263.381 446.584 263.381Z" fill="#FC9D9D"/>
<path d="M447.784 264.069C450.468 264.069 452.587 262.006 452.587 259.394C452.587 256.781 450.468 254.719 447.784 254.719C445.101 254.719 442.982 256.781 442.982 259.394C442.982 262.006 445.101 264.069 447.784 264.069Z" fill="#21252B"/>
<path d="M448.138 255.957C448.138 255.957 453.152 276.513 442.346 277.888C432.953 279.125 431.894 264.894 431.894 264.894L432.318 255.682L448.138 255.957Z" fill="#FC9D9D"/>
<path d="M447.502 257.262L437.897 257.95C436.696 258.019 435.778 259.05 435.919 260.219C435.99 261.387 435.142 262.419 433.942 262.487C433.589 262.487 433.377 262.762 433.377 263.106L433.518 265.169C433.518 265.444 433.306 265.65 433.094 265.65C432.882 265.65 432.6 265.512 432.6 265.306L432.176 263.381L431.752 262.762L429.492 264.137C429.492 264.137 425.82 258.637 427.586 253.687C428.574 250.869 431.47 249.837 432.882 249.631C433.306 249.562 433.73 249.356 433.942 248.944C434.507 248.05 435.849 246.4 438.886 246.537C441.216 246.606 442.487 247.844 443.123 248.806C443.547 249.425 444.324 249.631 444.959 249.356C445.948 248.944 447.361 248.669 448.985 249.631C452.092 251.419 450.821 256.712 447.502 257.262Z" fill="#21252B"/>
<path opacity="0.15" d="M431.611 268.744C431.611 268.744 432.529 268.813 433.024 268.4L431.47 270.669L431.611 268.744Z" fill="#131213"/>
<path d="M432.106 263.313C432.106 263.313 431.399 261.388 429.351 262.282C427.021 263.313 427.444 268.538 431.47 268.813C433.589 268.95 433.165 267.782 432.812 266.2C432.106 263.313 432.106 263.313 432.106 263.313Z" fill="#FC9D9D"/>
<path opacity="0.3" d="M429.21 263.588C429.634 263.313 429.987 263.244 430.34 263.313C430.693 263.382 430.976 263.657 431.258 264C431.541 264.413 431.611 264.894 431.682 265.444L431.752 265.925C431.752 266.063 431.682 266.2 431.541 266.2C431.399 266.2 431.258 266.132 431.258 265.994L431.187 265.513C431.187 265.375 431.117 264.688 430.834 264.344C430.622 264.069 430.481 263.863 430.269 263.863C430.058 263.794 429.775 263.863 429.492 264.069C429.351 264.138 429.21 264.138 429.139 264C429.069 263.794 429.139 263.657 429.21 263.588Z" fill="#131213"/>
<path d="M447.573 257.675L446.443 257.812C446.301 257.812 446.231 257.744 446.231 257.606C446.231 257.469 446.301 257.4 446.443 257.4L447.573 257.262C447.714 257.262 447.855 257.194 447.996 257.194C448.279 257.125 448.773 256.85 449.197 256.506C449.268 256.437 449.479 256.437 449.55 256.575C449.621 256.644 449.621 256.781 449.479 256.85C448.914 257.262 448.42 257.537 448.138 257.606C447.926 257.675 447.784 257.675 447.573 257.675Z" fill="#FC9D9D"/>
<path opacity="0.15" d="M446.442 279.537L446.089 276.237C445.171 277.131 442.558 278.437 439.662 277.818C437.826 277.337 436.626 276.375 435.849 275.55C435.778 275.481 435.637 275.481 435.566 275.55C435.496 275.618 435.496 275.756 435.566 275.825C436.484 276.856 438.109 278.093 440.581 278.437C443.547 280.362 446.442 279.537 446.442 279.537Z" fill="#131213"/>
<path opacity="0.3" d="M443.123 273.694C442.205 273.762 441.781 273.831 441.781 273.831C441.64 273.831 441.499 273.694 441.499 273.556C441.499 273.419 441.64 273.281 441.781 273.281C441.781 273.281 442.205 273.281 443.053 273.144C443.194 273.144 443.335 273.212 443.335 273.419C443.406 273.556 443.264 273.694 443.123 273.694Z" fill="#131213"/>
<path opacity="0.3" d="M443.617 272.456C441.216 272.8 440.157 271.562 439.804 270.944C439.733 270.806 439.804 270.669 439.874 270.6C440.016 270.531 440.157 270.6 440.227 270.669C440.581 271.287 441.781 272.594 444.606 271.7C444.747 271.631 444.889 271.7 444.959 271.837C445.03 271.975 444.959 272.112 444.818 272.181C444.394 272.319 443.971 272.456 443.617 272.456Z" fill="#131213"/>
<path d="M440.369 266.406C440.863 266.406 441.216 266.062 441.216 265.581C441.216 265.1 440.863 264.756 440.369 264.756C439.874 264.756 439.521 265.1 439.521 265.581C439.521 266.062 439.874 266.406 440.369 266.406Z" fill="#21252B"/>
<path d="M440.722 265.512C440.864 265.512 440.934 265.444 440.934 265.306C440.934 265.168 440.864 265.1 440.722 265.1C440.581 265.1 440.51 265.168 440.51 265.306C440.51 265.444 440.581 265.512 440.722 265.512Z" fill="white"/>
<path d="M447.219 266.406C447.714 266.406 448.067 266.062 448.067 265.581C448.067 265.1 447.714 264.756 447.219 264.756C446.725 264.756 446.372 265.1 446.372 265.581C446.372 266.062 446.725 266.406 447.219 266.406Z" fill="#21252B"/>
<path d="M447.573 265.512C447.714 265.512 447.785 265.444 447.785 265.306C447.785 265.168 447.714 265.1 447.573 265.1C447.431 265.1 447.361 265.168 447.361 265.306C447.361 265.444 447.431 265.512 447.573 265.512Z" fill="white"/>
<path opacity="0.3" d="M444.253 270.394L443.123 270.463C442.982 270.463 442.841 270.394 442.841 270.256C442.841 270.119 442.911 269.981 443.052 269.981L444.182 269.913C444.465 269.913 444.677 269.638 444.677 269.363C444.677 269.088 444.394 268.881 444.112 268.881C443.971 268.881 443.829 268.813 443.829 268.675C443.829 268.538 443.9 268.4 444.041 268.4C444.606 268.331 445.101 268.744 445.171 269.294C445.242 269.913 444.818 270.394 444.253 270.394Z" fill="#131213"/>
<path d="M449.691 263.381H445.877H445.383H442.064H437.826C437.12 263.381 436.555 263.931 436.555 264.618V265.581C436.555 267.437 438.109 268.881 439.945 268.881C441.852 268.881 443.335 267.368 443.335 265.581V264.618C443.335 264.343 443.264 264.068 443.052 263.862H444.394C444.253 264.068 444.112 264.343 444.112 264.618V265.581C444.112 267.437 445.666 268.881 447.502 268.881C449.409 268.881 450.892 267.368 450.892 265.581V264.618C450.962 263.931 450.397 263.381 449.691 263.381ZM442.841 264.618V265.581C442.841 267.162 441.569 268.4 439.945 268.4C438.321 268.4 437.049 267.162 437.049 265.581V264.618C437.049 264.206 437.402 263.862 437.826 263.862H442.064C442.487 263.862 442.841 264.206 442.841 264.618ZM450.468 265.512C450.468 267.093 449.197 268.331 447.572 268.331C445.948 268.331 444.677 267.093 444.677 265.512V264.55C444.677 264.137 445.03 263.793 445.454 263.793H445.948H449.762C450.186 263.793 450.539 264.137 450.539 264.55L450.468 265.512Z" fill="#21252B"/>
<g opacity="0.15">
<path opacity="0.15" d="M459.155 353.237H429.634C429.493 353.237 429.351 353.1 429.351 352.963C429.351 352.825 429.493 352.688 429.634 352.688H459.155C459.296 352.688 459.438 352.825 459.438 352.963C459.438 353.1 459.296 353.237 459.155 353.237Z" fill="#131213"/>
</g>
<g opacity="0.15">
<path opacity="0.15" d="M454.494 287.581H441.075L440.086 288.406C439.874 288.612 439.521 288.612 439.239 288.475L437.897 287.581H423.136V289.094H454.494V287.581Z" fill="#45205C"/>
<path opacity="0.15" d="M454.564 293.975H423.136V295.487H454.564V293.975Z" fill="#45205C"/>
<path opacity="0.15" d="M454.564 326.013H423.136V327.525H454.564V326.013Z" fill="#131213"/>
<path opacity="0.15" d="M457.177 338.8H423.136V340.312H457.177V338.8Z" fill="#131213"/>
</g>
<path d="M412.472 285.656C416.992 293.563 424.902 299.269 434.366 300.988C432.741 291.844 430.976 285.106 429.916 282.013L412.472 285.656Z" fill="#21252B"/>
<path d="M464.946 289.506C463.534 287.856 461.839 286.687 460.073 286.137L447.714 282.287C447.855 284.762 448.42 291.293 449.338 300.093C455.624 298.237 461.062 294.456 464.946 289.506Z" fill="#21252B"/>
<path d="M464.946 289.506C463.534 287.856 461.839 286.687 460.073 286.137L447.714 282.287C447.855 284.762 448.42 291.293 449.338 300.093C455.624 298.237 461.062 294.456 464.946 289.506Z" fill="#21252B"/>
<path d="M482.461 389.468H452.94C452.163 389.468 451.527 388.85 451.527 388.093V380.943C451.527 380.187 452.163 379.568 452.94 379.568H482.461C483.238 379.568 483.874 380.187 483.874 380.943V388.093C483.874 388.918 483.238 389.468 482.461 389.468Z" fill="#45205C"/>
<path d="M474.551 385.619H460.85C460.285 385.619 459.791 385.138 459.791 384.588C459.791 384.038 460.285 383.557 460.85 383.557H474.551C475.116 383.557 475.611 384.038 475.611 384.588C475.611 385.138 475.116 385.619 474.551 385.619Z" fill="white"/>
<path d="M399.759 381.631L400.466 383.075C400.536 383.144 400.607 383.212 400.748 383.281L402.372 383.487C402.655 383.556 402.726 383.831 402.584 384.037L401.384 385.137C401.313 385.206 401.242 385.344 401.313 385.412L401.596 386.994C401.666 387.269 401.384 387.475 401.101 387.337L399.618 386.581C399.547 386.512 399.406 386.512 399.336 386.581L397.852 387.337C397.641 387.475 397.358 387.269 397.358 386.994L397.641 385.412C397.641 385.275 397.641 385.206 397.57 385.137L396.369 384.037C396.157 383.831 396.299 383.556 396.581 383.487L398.206 383.281C398.347 383.281 398.417 383.212 398.488 383.075L399.194 381.631C399.265 381.356 399.618 381.356 399.759 381.631Z" fill="#45205C"/>
<path d="M408.023 381.631L408.729 383.075C408.799 383.144 408.87 383.212 409.011 383.281L410.636 383.487C410.918 383.556 410.989 383.831 410.848 384.037L409.647 385.137C409.576 385.206 409.506 385.344 409.576 385.412L409.859 386.994C409.929 387.269 409.647 387.475 409.364 387.337L407.881 386.581C407.811 386.512 407.669 386.512 407.599 386.581L406.116 387.337C405.904 387.475 405.621 387.269 405.621 386.994L405.904 385.412C405.904 385.275 405.904 385.206 405.833 385.137L404.633 384.037C404.421 383.831 404.562 383.556 404.844 383.487L406.469 383.281C406.61 383.281 406.681 383.212 406.751 383.075L407.458 381.631C407.528 381.356 407.881 381.356 408.023 381.631Z" fill="#45205C"/>
<path d="M416.286 381.631L416.992 383.075C417.063 383.144 417.133 383.212 417.274 383.281L418.899 383.487C419.181 383.556 419.252 383.831 419.111 384.037L417.91 385.137C417.839 385.206 417.769 385.344 417.839 385.412L418.122 386.994C418.193 387.269 417.91 387.475 417.628 387.337L416.144 386.581C416.074 386.512 415.933 386.512 415.862 386.581L414.379 387.337C414.167 387.475 413.884 387.269 413.884 386.994L414.167 385.412C414.167 385.275 414.167 385.206 414.096 385.137L412.896 384.037C412.684 383.831 412.825 383.556 413.108 383.487L414.732 383.281C414.873 383.281 414.944 383.212 415.014 383.075L415.721 381.631C415.791 381.356 416.144 381.356 416.286 381.631Z" fill="#45205C"/>
<path d="M424.549 381.631L425.255 383.075C425.326 383.144 425.396 383.212 425.537 383.281L427.162 383.487C427.444 383.556 427.515 383.831 427.374 384.037L426.173 385.137C426.102 385.206 426.032 385.344 426.102 385.412L426.385 386.994C426.456 387.269 426.173 387.475 425.891 387.337L424.407 386.581C424.337 386.512 424.196 386.512 424.125 386.581L422.642 387.337C422.43 387.475 422.147 387.269 422.147 386.994L422.43 385.412C422.43 385.275 422.43 385.206 422.359 385.137L421.159 384.037C420.947 383.831 421.088 383.556 421.371 383.487L422.995 383.281C423.136 383.281 423.207 383.212 423.277 383.075L423.984 381.631C424.054 381.356 424.407 381.356 424.549 381.631Z" fill="#45205C"/>
<path d="M432.812 381.631L433.518 383.075C433.589 383.144 433.659 383.212 433.801 383.281L435.425 383.487C435.707 383.556 435.778 383.831 435.637 384.037L434.436 385.137C434.366 385.206 434.295 385.344 434.366 385.412L434.648 386.994C434.719 387.269 434.436 387.475 434.154 387.337L432.671 386.581C432.6 386.512 432.459 386.512 432.388 386.581L430.905 387.337C430.693 387.475 430.411 387.269 430.411 386.994L430.693 385.412C430.693 385.275 430.693 385.206 430.622 385.137L429.422 384.037C429.21 383.831 429.351 383.556 429.634 383.487L431.258 383.281C431.399 383.281 431.47 383.212 431.541 383.075L432.247 381.631C432.317 381.356 432.671 381.356 432.812 381.631Z" fill="#B1B5BA"/>
<path d="M472.503 327.8H406.751C406.257 327.8 405.833 327.388 405.833 326.907V323.95C405.833 323.469 406.257 323.057 406.751 323.057H472.503C472.997 323.057 473.421 323.469 473.421 323.95V326.907C473.421 327.388 472.997 327.8 472.503 327.8Z" fill="#3F4249"/>
<path d="M477.094 340.313H402.938C402.231 340.313 401.666 339.763 401.666 339.075C401.666 338.388 402.231 337.838 402.938 337.838H477.094C477.8 337.838 478.365 338.388 478.365 339.075C478.365 339.763 477.8 340.313 477.094 340.313Z" fill="#B1B5BA"/>
<path d="M477.094 351.725H402.938C402.231 351.725 401.666 351.175 401.666 350.487C401.666 349.8 402.231 349.25 402.938 349.25H477.094C477.8 349.25 478.365 349.8 478.365 350.487C478.365 351.175 477.8 351.725 477.094 351.725Z" fill="#B1B5BA"/>
<path d="M460.426 363.137H419.676C418.969 363.137 418.404 362.587 418.404 361.9C418.404 361.212 418.969 360.662 419.676 360.662H460.426C461.132 360.662 461.697 361.212 461.697 361.9C461.697 362.587 461.132 363.137 460.426 363.137Z" fill="#B1B5BA"/>
<path opacity="0.7" d="M373.769 317.968C376.171 317.968 378.148 316.043 378.148 313.706C378.148 311.368 376.171 309.443 373.769 309.443C371.368 309.443 369.391 311.368 369.391 313.706C369.391 316.043 371.368 317.968 373.769 317.968Z" fill="white"/>
<path d="M374.264 315.769L374.97 315.081L373.487 313.706L374.97 312.263L374.264 311.575L372.074 313.706L374.264 315.769Z" fill="#45205C"/>
<path opacity="0.7" d="M754.721 317.968C757.122 317.968 759.099 316.043 759.099 313.706C759.099 311.368 757.122 309.443 754.721 309.443C752.319 309.443 750.342 311.368 750.342 313.706C750.342 316.043 752.319 317.968 754.721 317.968Z" fill="white"/>
<path d="M754.226 315.769L753.52 315.081L755.003 313.706L753.52 312.263L754.226 311.575L756.416 313.706L754.226 315.769Z" fill="#45205C"/>
<path d="M439.874 203.5H388.036C386.552 203.5 385.352 202.331 385.352 200.888V193.394C385.352 191.95 386.552 190.781 388.036 190.781H439.874C441.357 190.781 442.558 191.95 442.558 193.394V200.888C442.558 202.331 441.357 203.5 439.874 203.5Z" fill="#45205C"/>
<path d="M614.459 401.775H513.324C511.064 401.775 509.157 399.987 509.157 397.718V229.625C509.157 227.425 510.994 225.568 513.324 225.568H614.459C616.719 225.568 618.626 227.356 618.626 229.625V397.787C618.556 399.987 616.719 401.775 614.459 401.775Z" fill="white"/>
<path d="M596.309 327.8H530.557C530.062 327.8 529.639 327.388 529.639 326.907V323.95C529.639 323.469 530.062 323.057 530.557 323.057H596.309C596.803 323.057 597.227 323.469 597.227 323.95V326.907C597.227 327.388 596.803 327.8 596.309 327.8Z" fill="#3F4249"/>
<path d="M600.899 340.313H526.743C526.037 340.313 525.472 339.763 525.472 339.075C525.472 338.388 526.037 337.838 526.743 337.838H600.899C601.606 337.838 602.171 338.388 602.171 339.075C602.241 339.763 601.676 340.313 600.899 340.313Z" fill="#B1B5BA"/>
<path d="M600.899 351.725H526.743C526.037 351.725 525.472 351.175 525.472 350.487C525.472 349.8 526.037 349.25 526.743 349.25H600.899C601.606 349.25 602.171 349.8 602.171 350.487C602.241 351.175 601.676 351.725 600.899 351.725Z" fill="#B1B5BA"/>
<path d="M584.232 363.137H543.481C542.775 363.137 542.21 362.587 542.21 361.9C542.21 361.212 542.775 360.662 543.481 360.662H584.232C584.938 360.662 585.503 361.212 585.503 361.9C585.574 362.587 584.938 363.137 584.232 363.137Z" fill="#B1B5BA"/>
<path d="M563.892 301.469C581.266 301.469 595.391 287.719 595.391 270.806C595.391 253.894 581.266 240.144 563.892 240.144C546.518 240.144 532.393 253.894 532.393 270.806C532.393 287.719 546.518 301.469 563.892 301.469Z" fill="#B1B5BA"/>
<path d="M574.062 285.518L556.829 285.381L553.792 286L541.857 288.268C540.797 288.543 539.809 288.956 538.961 289.506C544.752 296.793 553.722 301.468 563.892 301.468C567.564 301.468 571.096 300.85 574.415 299.681C574.98 293.425 575.616 289.025 576.322 286.137L574.062 285.518Z" fill="#45205C"/>
<path d="M567.988 276.581C568.482 271.012 564.174 266.131 558.242 265.581C552.38 265.099 547.224 269.156 546.73 274.724C546.236 280.293 550.614 285.174 556.476 285.725C562.267 286.206 567.494 282.081 567.988 276.581Z" fill="#21252B"/>
<path d="M569.33 252.519C571.307 249.906 570.813 246.262 568.129 244.337C565.446 242.412 561.703 242.894 559.725 245.506C557.748 248.119 558.242 251.762 560.926 253.687C563.609 255.612 567.352 255.131 569.33 252.519Z" fill="#21252B"/>
<path d="M558.736 250.525C559.16 252.175 560.29 253.55 561.985 254.375C564.951 255.75 568.553 254.443 569.966 251.556C570.036 251.35 570.107 251.144 570.178 251.006C567.847 249.494 562.762 248.256 558.736 250.525Z" fill="#45205C"/>
<path d="M569.683 275.825C569.401 282.081 568.271 285.519 571.802 285.656C577.523 285.931 582.396 281.05 582.678 274.725C582.961 268.469 578.511 263.175 572.791 262.969C571.308 268.331 569.966 269.569 569.683 275.825Z" fill="#21252B"/>
<path d="M555.417 285.656L556.476 286.481C561.491 290.606 568.906 290.538 573.85 286.413L574.698 285.725L571.731 284.969C571.096 284.831 570.672 284.281 570.601 283.663L569.401 268.263L559.513 270.119L558.524 283.869C558.454 284.488 558.03 285.038 557.394 285.175L555.417 285.656Z" fill="#FC9D9D"/>
<path d="M564.81 280.362C560.926 280.362 557.747 277.406 557.536 273.625L556.617 258.912L573.285 259.05L572.155 273.762C571.872 277.543 568.694 280.431 564.81 280.362Z" fill="#FC9D9D"/>
<path d="M564.81 280.362C560.926 280.362 557.747 277.406 557.536 273.625L556.617 258.912L573.285 259.05L572.155 273.762C571.872 277.543 568.694 280.431 564.81 280.362Z" fill="#FC9D9D"/>
<path d="M561.561 269.431C562.056 269.431 562.409 269.088 562.409 268.606C562.409 268.125 562.056 267.781 561.561 267.781C561.067 267.781 560.714 268.125 560.714 268.606C560.714 269.088 561.067 269.431 561.561 269.431Z" fill="#21252B"/>
<path d="M561.208 268.538C561.35 268.538 561.421 268.469 561.421 268.331C561.421 268.194 561.35 268.125 561.208 268.125C561.067 268.125 560.996 268.194 560.996 268.331C560.996 268.469 561.067 268.538 561.208 268.538Z" fill="white"/>
<path d="M568.341 267.781C568.835 267.781 569.189 268.125 569.189 268.606C569.189 269.088 568.835 269.431 568.341 269.431C567.847 269.431 567.494 269.088 567.494 268.606C567.494 268.125 567.847 267.781 568.341 267.781Z" fill="#21252B"/>
<path d="M567.918 268.538C568.059 268.538 568.13 268.469 568.13 268.331C568.13 268.194 568.059 268.125 567.918 268.125C567.776 268.125 567.706 268.194 567.706 268.331C567.706 268.469 567.776 268.538 567.918 268.538Z" fill="white"/>
<g opacity="0.3">
<path opacity="0.3" d="M565.022 273.35H564.245C564.104 273.35 563.962 273.213 563.962 273.075C563.962 272.938 564.104 272.8 564.245 272.8H565.022C565.304 272.8 565.587 272.594 565.587 272.319C565.587 272.044 565.375 271.769 565.092 271.769C564.951 271.769 564.81 271.631 564.81 271.494C564.81 271.356 564.951 271.219 565.092 271.219C565.657 271.219 566.152 271.7 566.152 272.25C566.081 272.938 565.587 273.35 565.022 273.35Z" fill="#131213"/>
</g>
<path d="M550.968 267.644C552.239 266.75 551.744 265.1 551.744 265.1C551.533 264.412 551.391 263.656 551.321 262.831C551.25 260.975 552.168 259.737 552.733 259.119C553.016 258.775 553.228 258.362 553.228 257.95C554.004 249.975 566.011 248.187 572.014 253C575.616 255.956 576.463 259.187 576.181 262.281C576.181 262.281 575.969 263.656 577.24 264.344L575.686 264.962C575.051 267.231 573.921 268.262 573.356 269.912C572.084 269.087 572.367 265.444 572.367 265.444C568.836 265.031 568.836 261.044 568.836 261.044C565.587 267.712 557.112 267.094 557.112 267.094L556.618 268.95C556.618 268.95 553.298 268.262 552.592 267.094L551.25 267.987L550.968 267.644Z" fill="#21252B"/>
<path d="M572.367 271.494C572.367 271.494 575.192 271.288 575.333 268.469C575.474 265.719 571.943 265.788 571.943 268.538L572.084 271.563L572.367 271.494Z" fill="#FC9D9D"/>
<path opacity="0.3" d="M572.932 267.85C573.073 267.506 573.214 267.3 573.497 267.162C573.709 267.094 573.991 267.094 574.344 267.231C574.415 267.3 574.486 267.437 574.415 267.506C574.415 267.575 574.344 267.575 574.274 267.644C574.203 267.644 574.132 267.644 574.132 267.644C573.921 267.575 573.779 267.506 573.638 267.575C573.497 267.644 573.426 267.781 573.356 267.987C573.285 268.194 573.214 268.537 573.214 268.744C573.214 268.881 573.144 268.95 573.002 268.95C572.861 268.95 572.791 268.812 572.791 268.744C572.791 268.469 572.861 268.125 572.932 267.85Z" fill="#131213"/>
<path d="M573.214 270.944C573.426 270.944 573.638 270.669 573.638 270.394C573.638 270.119 573.426 269.844 573.214 269.844C573.002 269.844 572.791 270.119 572.791 270.394C572.72 270.737 572.932 270.944 573.214 270.944Z" fill="#45205C"/>
<path opacity="0.15" d="M573.002 270.875C573.285 270.875 573.426 270.6 573.426 270.256C573.426 270.118 573.426 270.05 573.355 269.912C573.497 269.981 573.567 270.187 573.567 270.325C573.567 270.6 573.355 270.875 573.144 270.875C573.073 270.875 573.002 270.875 572.932 270.806C572.932 270.875 572.932 270.875 573.002 270.875Z" fill="#131213"/>
<path d="M557.253 271.494C557.253 271.494 554.428 271.288 554.287 268.469C554.146 265.719 557.677 265.788 557.677 268.538L557.536 271.563L557.253 271.494Z" fill="#FC9D9D"/>
<path opacity="0.3" d="M556.759 267.85C556.617 267.506 556.406 267.3 556.194 267.162C555.911 267.094 555.629 267.094 555.346 267.231C555.276 267.3 555.205 267.437 555.276 267.506C555.276 267.575 555.346 267.575 555.417 267.644C555.487 267.644 555.558 267.644 555.558 267.644C555.77 267.575 555.911 267.506 556.052 267.575C556.194 267.644 556.264 267.781 556.406 267.987C556.476 268.194 556.547 268.537 556.547 268.744C556.547 268.881 556.617 268.95 556.759 268.95C556.9 268.95 556.971 268.812 556.971 268.744C556.9 268.469 556.829 268.125 556.759 267.85Z" fill="#131213"/>
<path d="M556.971 270.256C556.971 269.981 556.829 269.706 556.547 269.706C556.335 269.706 556.123 269.912 556.123 270.256C556.123 270.531 556.264 270.806 556.547 270.806C556.759 270.806 556.971 270.6 556.971 270.256Z" fill="#45205C"/>
<path opacity="0.15" d="M556.688 270.875C556.406 270.875 556.264 270.6 556.264 270.256C556.264 270.118 556.264 270.05 556.335 269.912C556.194 269.981 556.123 270.187 556.123 270.325C556.123 270.6 556.335 270.875 556.547 270.875C556.617 270.875 556.688 270.875 556.759 270.806C556.759 270.875 556.688 270.875 556.688 270.875Z" fill="#131213"/>
<path d="M566.717 274.656C566.858 274.656 566.929 274.794 566.858 274.862C566.434 275.687 565.587 276.237 564.598 276.237C563.61 276.237 562.833 275.687 562.338 274.862C562.268 274.794 562.338 274.656 562.48 274.656H566.717Z" fill="white"/>
<path d="M568.624 266.063C567.564 266.131 566.576 266.75 566.011 267.575C565.022 267.231 564.245 267.506 563.821 267.644C563.115 266.613 561.914 265.925 560.573 266.063C558.666 266.2 557.253 267.919 557.394 269.775C557.536 271.631 559.301 273.006 561.208 272.869C563.115 272.731 564.528 271.013 564.386 269.156C564.316 268.744 564.245 268.4 564.104 268.056C564.457 267.919 565.093 267.781 565.799 267.988C565.516 268.538 565.375 269.156 565.446 269.775C565.587 271.631 567.353 273.006 569.259 272.869C571.166 272.731 572.579 271.013 572.438 269.156C572.296 267.3 570.531 265.856 568.624 266.063ZM561.208 272.319C559.513 272.456 558.03 271.288 557.889 269.638C557.748 267.988 558.948 266.544 560.643 266.406C562.338 266.269 563.821 267.438 563.963 269.088C564.104 270.738 562.903 272.181 561.208 272.319ZM569.259 272.388C567.564 272.525 566.081 271.356 565.94 269.706C565.799 268.056 566.999 266.613 568.694 266.475C570.389 266.338 571.873 267.506 572.014 269.156C572.155 270.806 570.884 272.25 569.259 272.388Z" fill="white"/>
<path opacity="0.15" d="M561.773 280.363C562.762 280.775 563.751 280.913 564.669 280.913C565.022 280.913 565.375 280.913 565.657 280.844C567.282 281.6 569.683 281.257 570.531 280.982L570.319 278.025L569.895 278.438C569.33 278.919 568.694 279.332 567.988 279.675C567.423 279.882 566.293 280.294 564.881 280.363H564.81H564.739C563.892 280.363 562.974 280.225 562.056 279.882C561.914 279.813 561.773 279.882 561.702 280.019C561.561 280.157 561.632 280.294 561.773 280.363Z" fill="#131213"/>
<path d="M587.904 290.675C586.845 289.575 585.503 288.681 583.808 288.131L575.828 286C575.263 288.406 574.556 293.288 573.921 299.888C579.359 298.1 584.232 294.869 587.904 290.675Z" fill="#45205C"/>
<path d="M574.768 285.656L573.921 286.344C571.378 288.475 568.271 289.506 565.163 289.506C562.056 289.506 559.019 288.475 556.476 286.413L555.417 285.588L557.465 285.106L553.651 285.863L555.558 287.444C558.242 289.644 561.632 290.813 565.093 290.813C568.624 290.813 572.085 289.575 574.768 287.375L576.322 286.069L574.768 285.656Z" fill="#002D75"/>
<path d="M576.322 287.994C576.604 287.994 576.887 287.719 576.887 287.444C576.887 287.169 576.604 286.894 576.322 286.894C576.039 286.894 575.757 287.169 575.757 287.444C575.757 287.719 576.039 287.994 576.322 287.994Z" fill="white"/>
<path d="M569.542 296.45C569.824 296.45 570.107 296.175 570.107 295.9C570.107 295.625 569.824 295.35 569.542 295.35C569.259 295.35 568.977 295.625 568.977 295.9C568.977 296.175 569.259 296.45 569.542 296.45Z" fill="white"/>
<path d="M558.242 305.8C558.524 305.8 558.807 305.525 558.807 305.25C558.807 304.975 558.524 304.7 558.242 304.7C557.959 304.7 557.677 304.975 557.677 305.25C557.677 305.525 557.959 305.8 558.242 305.8Z" fill="white"/>
<path d="M580.559 303.875C580.842 303.875 581.124 303.6 581.124 303.325C581.124 303.05 580.842 302.775 580.559 302.775C580.277 302.775 579.994 303.05 579.994 303.325C579.994 303.6 580.277 303.875 580.559 303.875Z" fill="white"/>
<path d="M589.529 311.025C589.811 311.025 590.094 310.75 590.094 310.475C590.094 310.2 589.811 309.925 589.529 309.925C589.246 309.925 588.964 310.2 588.964 310.475C588.964 310.75 589.246 311.025 589.529 311.025Z" fill="white"/>
<path d="M586.916 294.869C587.198 294.869 587.481 294.594 587.481 294.319C587.481 294.044 587.198 293.769 586.916 293.769C586.633 293.769 586.351 294.044 586.351 294.319C586.351 294.594 586.633 294.869 586.916 294.869Z" fill="white"/>
<path d="M555.982 291.981C556.264 291.981 556.547 291.706 556.547 291.431C556.547 291.156 556.264 290.881 555.982 290.881C555.699 290.881 555.417 291.156 555.417 291.431C555.417 291.706 555.699 291.981 555.982 291.981Z" fill="white"/>
<path d="M546.801 299.269C547.083 299.269 547.366 298.994 547.366 298.719C547.366 298.444 547.083 298.169 546.801 298.169C546.518 298.169 546.236 298.444 546.236 298.719C546.236 298.994 546.518 299.269 546.801 299.269Z" fill="white"/>
<path d="M544.541 289.712C544.823 289.712 545.106 289.437 545.106 289.162C545.106 288.887 544.823 288.612 544.541 288.612C544.258 288.612 543.976 288.887 543.976 289.162C543.976 289.437 544.258 289.712 544.541 289.712Z" fill="white"/>
<path d="M534.512 301.744C534.794 301.744 535.077 301.469 535.077 301.194C535.077 300.919 534.794 300.644 534.512 300.644C534.229 300.644 533.947 300.919 533.947 301.194C533.947 301.469 534.229 301.744 534.512 301.744Z" fill="white"/>
<path d="M557.818 385.138C557.747 385.206 557.677 385.344 557.748 385.413L558.03 386.994C558.101 387.269 557.818 387.475 557.536 387.338L556.052 386.581C555.982 386.581 555.982 386.513 555.911 386.513L554.781 386.444L555.346 382.25L555.841 381.356C555.982 381.356 556.053 381.425 556.123 381.563L556.829 383.006C556.9 383.075 556.971 383.144 557.112 383.213L558.736 383.419C559.019 383.488 559.089 383.763 558.948 383.969L557.818 385.138Z" fill="#B1B5BA"/>
<path d="M523.141 381.631L523.848 383.075C523.918 383.144 523.989 383.212 524.13 383.281L525.755 383.487C526.037 383.556 526.108 383.831 525.966 384.037L524.766 385.137C524.695 385.206 524.625 385.344 524.695 385.412L524.978 386.994C525.048 387.269 524.766 387.475 524.483 387.337L523 386.581C522.93 386.512 522.788 386.512 522.718 386.581L521.235 387.337C521.023 387.475 520.74 387.269 520.74 386.994L521.023 385.412C521.023 385.275 521.023 385.206 520.952 385.137L519.751 384.037C519.54 383.831 519.681 383.556 519.963 383.487L521.588 383.281C521.729 383.281 521.8 383.212 521.87 383.075L522.576 381.631C522.718 381.356 523 381.356 523.141 381.631Z" fill="#45205C"/>
<path d="M531.404 381.631L532.111 383.075C532.181 383.144 532.252 383.212 532.393 383.281L534.017 383.487C534.3 383.556 534.371 383.831 534.229 384.037L533.029 385.137C532.958 385.206 532.887 385.344 532.958 385.412L533.241 386.994C533.311 387.269 533.029 387.475 532.746 387.337L531.263 386.581C531.193 386.512 531.051 386.512 530.981 386.581L529.498 387.337C529.286 387.475 529.003 387.269 529.003 386.994L529.286 385.412C529.286 385.275 529.286 385.206 529.215 385.137L528.014 384.037C527.802 383.831 527.944 383.556 528.226 383.487L529.851 383.281C529.992 383.281 530.062 383.212 530.133 383.075L530.839 381.631C530.981 381.356 531.263 381.356 531.404 381.631Z" fill="#45205C"/>
<path d="M539.667 381.631L540.374 383.075C540.444 383.144 540.515 383.212 540.656 383.281L542.28 383.487C542.563 383.556 542.634 383.831 542.492 384.037L541.292 385.137C541.221 385.206 541.15 385.344 541.221 385.412L541.504 386.994C541.574 387.269 541.292 387.475 541.009 387.337L539.526 386.581C539.455 386.512 539.314 386.512 539.244 386.581L537.76 387.337C537.549 387.475 537.266 387.269 537.266 386.994L537.549 385.412C537.549 385.275 537.549 385.206 537.478 385.137L536.277 384.037C536.065 383.831 536.207 383.556 536.489 383.487L538.114 383.281C538.255 383.281 538.325 383.212 538.396 383.075L539.102 381.631C539.244 381.356 539.526 381.356 539.667 381.631Z" fill="#45205C"/>
<path d="M547.93 381.631L548.637 383.075C548.707 383.144 548.778 383.212 548.919 383.281L550.544 383.487C550.826 383.556 550.897 383.831 550.755 384.037L549.555 385.137C549.484 385.206 549.414 385.344 549.484 385.412L549.767 386.994C549.837 387.269 549.555 387.475 549.272 387.337L547.789 386.581C547.719 386.512 547.577 386.512 547.507 386.581L546.024 387.337C545.812 387.475 545.529 387.269 545.529 386.994L545.812 385.412C545.812 385.275 545.812 385.206 545.741 385.137L544.54 384.037C544.329 383.831 544.47 383.556 544.752 383.487L546.377 383.281C546.518 383.281 546.589 383.212 546.659 383.075L547.365 381.631C547.507 381.356 547.789 381.356 547.93 381.631Z" fill="#45205C"/>
<path d="M555.911 381.425V386.581C555.841 386.581 555.841 386.581 555.77 386.65L554.287 387.406C554.075 387.544 553.792 387.337 553.792 387.062L554.075 385.481C554.075 385.344 554.075 385.275 554.004 385.206L552.804 384.106C552.592 383.9 552.733 383.625 553.016 383.556L554.64 383.35C554.781 383.35 554.852 383.281 554.922 383.144L555.629 381.7C555.699 381.494 555.841 381.425 555.911 381.425Z" fill="#45205C"/>
<path d="M606.338 389.468H576.816C576.039 389.468 575.404 388.85 575.404 388.093V380.943C575.404 380.187 576.039 379.568 576.816 379.568H606.338C607.114 379.568 607.75 380.187 607.75 380.943V388.093C607.679 388.918 607.044 389.468 606.338 389.468Z" fill="#45205C"/>
<path d="M598.357 385.619H584.656C584.091 385.619 583.596 385.138 583.596 384.588C583.596 384.038 584.091 383.557 584.656 383.557H598.357C598.922 383.557 599.416 384.038 599.416 384.588C599.416 385.138 598.992 385.619 598.357 385.619Z" fill="white"/>
<path d="M738.265 401.775H637.13C634.87 401.775 632.963 399.987 632.963 397.718V229.625C632.963 227.425 634.799 225.568 637.13 225.568H738.265C740.525 225.568 742.432 227.356 742.432 229.625V397.787C742.432 399.987 740.525 401.775 738.265 401.775Z" fill="white"/>
<path d="M720.114 327.8H654.362C653.868 327.8 653.444 327.388 653.444 326.907V323.95C653.444 323.469 653.868 323.057 654.362 323.057H720.114C720.609 323.057 721.033 323.469 721.033 323.95V326.907C721.033 327.388 720.609 327.8 720.114 327.8Z" fill="#3F4249"/>
<path d="M724.776 340.313H650.619C649.913 340.313 649.348 339.763 649.348 339.075C649.348 338.388 649.913 337.838 650.619 337.838H724.776C725.482 337.838 726.047 338.388 726.047 339.075C726.047 339.763 725.482 340.313 724.776 340.313Z" fill="#B1B5BA"/>
<path d="M724.776 351.725H650.619C649.913 351.725 649.348 351.175 649.348 350.487C649.348 349.8 649.913 349.25 650.619 349.25H724.776C725.482 349.25 726.047 349.8 726.047 350.487C726.047 351.175 725.482 351.725 724.776 351.725Z" fill="#B1B5BA"/>
<path d="M708.108 363.137H667.357C666.651 363.137 666.086 362.587 666.086 361.9C666.086 361.212 666.651 360.662 667.357 360.662H708.108C708.814 360.662 709.379 361.212 709.379 361.9C709.379 362.587 708.814 363.137 708.108 363.137Z" fill="#B1B5BA"/>
<path opacity="0.3" d="M687.697 301.469C705.071 301.469 719.196 287.719 719.196 270.806C719.196 253.894 705.071 240.144 687.697 240.144C670.324 240.144 656.199 253.894 656.199 270.806C656.199 287.719 670.324 301.469 687.697 301.469Z" fill="#45205C"/>
<path d="M678.375 263.381C675.832 263.106 674.067 260.975 674.279 258.5C674.561 256.025 676.751 254.306 679.293 254.512C679.434 254.512 679.787 254.444 679.787 254.581C678.516 258.431 679.364 263.45 678.375 263.381Z" fill="#21252B"/>
<path d="M697.938 281.393C697.938 281.6 692.571 293.906 688.404 294.181C684.731 294.456 682.189 283.112 682.189 282.837L682.33 276.856L682.259 273.762C682.048 273.006 681.2 272.387 681.129 271.425C680.706 267.093 680.141 263.175 680.141 263.175C680.141 263.175 694.407 253.343 695.608 264.343L697.02 266.062L697.938 281.393Z" fill="#966363"/>
<path d="M680.07 249.494C680.07 249.494 673.219 275.206 685.508 277.131C696.102 278.85 697.867 262.694 697.867 262.694L697.726 252.175L689.604 248.737L680.07 249.494Z" fill="#966363"/>
<path d="M683.107 256.025C684.449 254.375 686.638 253.206 688.827 253.413C691.299 253.619 693.206 255.612 692.782 258.431L692.712 259.05C692.641 259.669 693.065 260.219 693.63 260.288C694.76 260.356 695.607 261.387 695.537 262.487L695.396 264.275C695.396 264.481 695.537 264.688 695.819 264.688C695.819 264.688 696.314 264.756 696.525 264.344L696.879 262.419L695.678 251.212L686.356 248.188L682.259 251.212L683.107 256.025Z" fill="#21252B"/>
<path opacity="0.15" d="M697.02 266.681C697.02 266.681 696.243 266.612 695.749 265.581L697.091 268.125L697.02 266.681Z" fill="#131213"/>
<path opacity="0.15" d="M692.641 275.138C691.653 276.238 689.887 277.475 687.344 277.682C685.367 278.85 683.531 278.988 682.33 278.919V275.894L682.825 276.238C684.096 276.994 686.003 277.544 688.192 277.132C690.099 276.719 691.37 275.757 692.218 274.863C692.288 274.794 692.429 274.725 692.571 274.794C692.712 274.863 692.712 275 692.641 275.138Z" fill="#131213"/>
<path d="M688.192 264.206C688.757 264.206 689.181 263.794 689.181 263.244C689.181 262.694 688.757 262.281 688.192 262.281C687.627 262.281 687.203 262.694 687.203 263.244C687.203 263.794 687.627 264.206 688.192 264.206Z" fill="#21252B"/>
<path d="M687.768 263.106C687.91 263.106 687.98 263.037 687.98 262.9C687.98 262.762 687.91 262.693 687.768 262.693C687.627 262.693 687.556 262.762 687.556 262.9C687.556 263.037 687.627 263.106 687.768 263.106Z" fill="white"/>
<path d="M681.129 264.344C681.694 264.344 682.118 263.931 682.118 263.381C682.118 262.831 681.694 262.419 681.129 262.419C680.564 262.419 680.141 262.831 680.141 263.381C680.141 263.931 680.564 264.344 681.129 264.344Z" fill="#21252B"/>
<path d="M680.706 263.244C680.847 263.244 680.918 263.175 680.918 263.038C680.918 262.9 680.847 262.831 680.706 262.831C680.564 262.831 680.494 262.9 680.494 263.038C680.494 263.175 680.564 263.244 680.706 263.244Z" fill="white"/>
<g opacity="0.3">
<path opacity="0.3" d="M683.743 268.263L685.014 268.194C685.155 268.194 685.296 268.057 685.296 267.919C685.296 267.782 685.155 267.644 685.014 267.644L683.743 267.713C683.389 267.713 683.107 267.438 683.107 267.163C683.107 266.819 683.389 266.544 683.672 266.544C683.813 266.544 683.954 266.407 683.954 266.269C683.954 266.132 683.813 265.994 683.672 265.994C683.036 265.994 682.542 266.544 682.542 267.163C682.613 267.782 683.107 268.263 683.743 268.263Z" fill="#131213"/>
</g>
<path d="M687.698 301.469C699.986 301.469 710.58 294.663 715.806 284.694C715.665 284.625 715.594 284.625 715.453 284.557C715.312 284.488 715.1 284.488 714.888 284.419L697.656 280.432L688.333 291.225L682.33 280.707L662.484 283.044H662.414C661.284 283.182 660.224 283.594 659.377 284.213C664.462 294.457 675.268 301.469 687.698 301.469Z" fill="#3F4249"/>
<path d="M700.622 255.681C700.41 252.862 699.068 250.662 696.596 249.975C695.466 249.7 694.407 249.7 693.347 249.906C692.924 249.975 692.571 249.7 692.5 249.356C692.147 247.5 690.522 245.987 688.404 245.85C686.921 245.781 685.649 246.4 684.731 247.362C684.449 247.706 683.954 247.706 683.672 247.431C683.672 247.431 680.847 244.956 676.892 247.087C674.208 248.462 672.937 251.831 674.279 254.856C675.621 257.95 679.576 259.05 682.259 256.919C683.177 256.162 683.954 254.994 684.237 253.206C684.378 252.175 684.378 251.144 684.166 250.25L685.437 250.319C686.991 250.319 689.392 250.25 691.582 250.594C691.511 250.594 691.511 250.662 691.441 250.662L695.325 252.244C695.325 252.244 695.89 262.625 696.596 262.487C699.351 262.144 700.834 258.225 700.622 255.681Z" fill="#21252B"/>
<path d="M700.622 256.506L692.57 256.231C692.005 254.581 690.522 253.55 688.757 253.344C686.567 253.137 684.378 254.306 683.107 255.887C682.824 256.3 682.542 256.575 682.189 256.85C679.575 258.981 675.55 257.812 674.208 254.787C672.866 251.762 674.208 248.394 676.821 247.019C680.776 244.956 683.601 247.362 683.601 247.362C683.884 247.637 684.378 247.637 684.66 247.294C685.508 246.262 686.85 245.712 688.333 245.781C690.381 245.919 692.005 247.362 692.429 249.287C692.5 249.7 692.924 249.975 693.277 249.837C694.265 249.631 695.395 249.562 696.525 249.906C698.997 250.594 700.41 252.794 700.551 255.612C700.622 255.956 700.622 256.231 700.622 256.506Z" fill="#21252B"/>
<path d="M679.929 258.5L681.2 258.293C681.341 258.293 681.412 258.156 681.412 258.018C681.341 257.881 681.271 257.812 681.129 257.812L679.858 258.018C679.717 258.087 679.576 258.087 679.364 258.087C679.011 258.087 678.375 258.018 677.739 257.812C677.598 257.743 677.457 257.812 677.386 257.95C677.316 258.087 677.386 258.225 677.528 258.293C678.234 258.5 678.94 258.637 679.223 258.637C679.576 258.5 679.717 258.5 679.929 258.5Z" fill="#966363"/>
<path d="M687.627 291.569L683.601 288.269L688.545 287.375L693.418 288.337L689.11 291.638C688.686 291.913 688.051 291.913 687.627 291.569Z" fill="white"/>
<path d="M688.545 287.375L696.737 289.025L699.139 280.706L698.856 278.438C698.786 278.094 698.503 277.888 698.221 277.888H697.726L697.867 280.088L688.545 287.375Z" fill="white"/>
<path d="M682.259 280.638V278.713H681.977C681.553 278.713 681.271 279.057 681.271 279.4L681.129 288.682L688.545 287.375L682.259 280.638Z" fill="white"/>
<g opacity="0.15">
<path opacity="0.15" d="M694.76 289.094L688.545 287.719L681.977 288.956L681.835 288.544L688.545 287.375L694.901 288.681L694.76 289.094Z" fill="#131213"/>
</g>
<path d="M700.622 256.506C700.481 258.912 699.139 261.937 696.808 262.487L696.455 264.344C696.314 264.756 695.819 264.687 695.819 264.687C695.607 264.687 695.396 264.481 695.396 264.275L695.537 262.487C695.607 261.387 694.76 260.425 693.63 260.287C692.994 260.219 692.641 259.669 692.712 259.05L692.782 258.431C692.924 257.675 692.853 256.919 692.641 256.3L700.622 256.506Z" fill="#3F4249"/>
<path d="M696.879 261.456C696.879 261.456 697.444 259.6 699.492 260.288C701.823 261.113 701.116 265.787 697.868 266.681C695.89 266.956 696.173 265.787 696.455 264.275C696.879 261.456 696.879 261.456 696.879 261.456Z" fill="#966363"/>
<path opacity="0.3" d="M699.704 261.456C699.28 261.25 698.997 261.25 698.644 261.318C698.291 261.387 697.938 261.731 697.726 262.143C697.514 262.556 697.514 263.037 697.514 263.518V263.931C697.514 264.068 697.655 264.137 697.797 264.137C697.938 264.137 698.009 264 698.009 263.862V263.45C698.009 263.312 698.009 262.693 698.22 262.281C698.362 262.006 698.503 261.868 698.785 261.8C698.997 261.731 699.28 261.731 699.562 261.868C699.633 261.937 699.845 261.868 699.915 261.8C699.845 261.8 699.986 261.593 699.704 261.456Z" fill="#131213"/>
<path d="M695.184 257.194V257.675L692.853 257.538C692.853 257.538 692.853 257.263 692.853 257.057L695.184 257.194Z" fill="#21252B"/>
<path d="M694.76 258.432L694.689 258.913L696.667 259.05V258.569L694.76 258.432Z" fill="#21252B"/>
<path d="M685.791 277.475C683.389 277.544 681.412 275.757 681.341 273.419L681.271 271.425C681.2 269.775 682.542 268.4 684.237 268.4L686.709 268.332C688.404 268.263 689.816 269.569 689.816 271.219L689.887 273.213C690.028 275.55 688.121 277.475 685.791 277.475Z" fill="#21252B"/>
<path d="M683.248 270.188L687.556 270.119C687.556 270.119 687.344 271.7 685.579 271.769C683.46 271.907 683.248 270.188 683.248 270.188Z" fill="white"/>
<path d="M689.745 261.869C689.887 261.869 690.028 261.731 690.099 261.525C690.099 261.319 689.957 261.181 689.745 261.181L687.485 261.044C687.274 261.044 687.132 261.181 687.132 261.388C687.132 261.594 687.274 261.731 687.485 261.731L689.745 261.869Z" fill="#21252B"/>
<path d="M679.717 262.075C679.576 262.075 679.364 261.938 679.364 261.732C679.364 261.525 679.505 261.388 679.717 261.388L681.977 261.182C682.189 261.182 682.33 261.319 682.33 261.525C682.33 261.732 682.189 261.869 681.977 261.869L679.717 262.075C679.788 262.075 679.788 262.075 679.717 262.075Z" fill="#21252B"/>
<path d="M646.594 381.631L647.3 383.075C647.371 383.144 647.441 383.212 647.583 383.281L649.207 383.487C649.489 383.556 649.56 383.831 649.419 384.037L648.218 385.137C648.148 385.206 648.077 385.344 648.148 385.412L648.43 386.994C648.501 387.269 648.218 387.475 647.936 387.337L646.453 386.581C646.382 386.512 646.241 386.512 646.17 386.581L644.687 387.337C644.475 387.475 644.193 387.269 644.193 386.994L644.475 385.412C644.475 385.275 644.475 385.206 644.404 385.137L643.204 384.037C642.992 383.831 643.133 383.556 643.416 383.487L645.04 383.281C645.181 383.281 645.252 383.212 645.323 383.075L646.029 381.631C646.099 381.356 646.453 381.356 646.594 381.631Z" fill="#45205C"/>
<path d="M654.857 381.631L655.563 383.075C655.634 383.144 655.704 383.212 655.846 383.281L657.47 383.487C657.753 383.556 657.823 383.831 657.682 384.037L656.481 385.137C656.411 385.206 656.34 385.344 656.411 385.412L656.693 386.994C656.764 387.269 656.481 387.475 656.199 387.337L654.716 386.581C654.645 386.512 654.504 386.512 654.433 386.581L652.95 387.337C652.738 387.475 652.456 387.269 652.456 386.994L652.738 385.412C652.738 385.275 652.738 385.206 652.668 385.137L651.467 384.037C651.255 383.831 651.396 383.556 651.679 383.487L653.303 383.281C653.445 383.281 653.515 383.212 653.586 383.075L654.292 381.631C654.363 381.356 654.716 381.356 654.857 381.631Z" fill="#45205C"/>
<path d="M663.12 381.631L663.826 383.075C663.897 383.144 663.967 383.212 664.109 383.281L665.733 383.487C666.016 383.556 666.086 383.831 665.945 384.037L664.744 385.137C664.674 385.206 664.603 385.344 664.674 385.412L664.956 386.994C665.027 387.269 664.744 387.475 664.462 387.337L662.979 386.581C662.908 386.512 662.767 386.512 662.696 386.581L661.213 387.337C661.001 387.475 660.719 387.269 660.719 386.994L661.001 385.412C661.001 385.275 661.001 385.206 660.931 385.137L659.73 384.037C659.518 383.831 659.659 383.556 659.942 383.487L661.566 383.281C661.707 383.281 661.778 383.212 661.849 383.075L662.555 381.631C662.626 381.356 662.979 381.356 663.12 381.631Z" fill="#45205C"/>
<path d="M671.383 381.631L672.089 383.075C672.16 383.144 672.231 383.212 672.372 383.281L673.996 383.487C674.279 383.556 674.349 383.831 674.208 384.037L673.007 385.137C672.937 385.206 672.866 385.344 672.937 385.412L673.219 386.994C673.29 387.269 673.007 387.475 672.725 387.337L671.242 386.581C671.171 386.512 671.03 386.512 670.959 386.581L669.476 387.337C669.264 387.475 668.982 387.269 668.982 386.994L669.264 385.412C669.264 385.275 669.264 385.206 669.194 385.137L667.993 384.037C667.781 383.831 667.922 383.556 668.205 383.487L669.829 383.281C669.971 383.281 670.041 383.212 670.112 383.075L670.818 381.631C670.889 381.356 671.242 381.356 671.383 381.631Z" fill="#45205C"/>
<path d="M679.646 381.631L680.353 383.075C680.423 383.144 680.494 383.212 680.635 383.281L682.259 383.487C682.542 383.556 682.613 383.831 682.471 384.037L681.271 385.137C681.2 385.206 681.129 385.344 681.2 385.412L681.483 386.994C681.553 387.269 681.271 387.475 680.988 387.337L679.505 386.581C679.434 386.512 679.293 386.512 679.223 386.581L677.739 387.337C677.528 387.475 677.245 387.269 677.245 386.994L677.528 385.412C677.528 385.275 677.528 385.206 677.457 385.137L676.256 384.037C676.044 383.831 676.186 383.556 676.468 383.487L678.093 383.281C678.234 383.281 678.304 383.212 678.375 383.075L679.081 381.631C679.152 381.356 679.505 381.356 679.646 381.631Z" fill="#B1B5BA"/>
<path d="M730.143 389.468H700.622C699.845 389.468 699.209 388.85 699.209 388.093V380.943C699.209 380.187 699.845 379.568 700.622 379.568H730.143C730.92 379.568 731.556 380.187 731.556 380.943V388.093C731.485 388.918 730.92 389.468 730.143 389.468Z" fill="#45205C"/>
<path d="M722.233 385.619H708.532C707.967 385.619 707.472 385.138 707.472 384.588C707.472 384.038 707.967 383.557 708.532 383.557H722.233C722.798 383.557 723.292 384.038 723.292 384.588C723.222 385.138 722.798 385.619 722.233 385.619Z" fill="white"/>
<path d="M260.205 508.338C260.205 510.744 262.182 512.669 264.654 512.669H629.15C631.621 512.669 633.599 510.744 633.599 508.338C633.599 505.932 631.621 504.007 629.15 504.007H264.725C262.253 503.938 260.205 505.932 260.205 508.338Z" fill="#61656D"/>
<path d="M260.205 508.338C260.205 510.744 262.182 512.669 264.654 512.669H629.15C631.621 512.669 633.599 510.744 633.599 508.338C633.599 505.932 631.621 504.007 629.15 504.007H264.725C262.253 503.938 260.205 505.932 260.205 508.338Z" fill="#61656D"/>
<path d="M224.892 508.338C224.892 510.744 226.87 512.669 229.341 512.669H560.643C563.115 512.669 565.093 510.744 565.093 508.338C565.093 505.932 563.115 504.007 560.643 504.007H229.341C226.87 503.938 224.892 505.932 224.892 508.338Z" fill="#868A91"/>
<path d="M621.239 512.669H548.496V726.275H621.239V512.669Z" fill="#61656D"/>
<path d="M548.496 512.669H539.879V726.275H548.496V512.669Z" fill="#868A91"/>
<path d="M454.706 667.219H446.089V726.275H454.706V667.219Z" fill="#868A91"/>
<path d="M539.95 512.669H446.231V703.656H539.95V512.669Z" fill="#868A91"/>
<path d="M331.677 512.669H248.692V726.275H331.677V512.669Z" fill="#61656D"/>
<path d="M248.763 512.669H240.147V726.275H248.763V512.669Z" fill="#868A91"/>
<path d="M539.879 512.669H240.076V532.4H539.879V512.669Z" fill="#868A91"/>
<path opacity="0.15" d="M548.496 512.738H540.445V512.669H539.385V512.738H240.147V513.769H539.385V703.656H540.445V513.769H548.496V512.738Z" fill="#131213"/>
<path opacity="0.15" d="M460.355 540.65V689.425H527.237V540.65H460.355ZM486.487 541.681C487.687 544.431 490.512 546.356 493.832 546.356C497.151 546.356 499.976 544.431 501.177 541.681H526.178V589.875H461.415V541.681H486.487ZM493.832 595.65C497.151 595.65 499.976 593.725 501.177 590.975H526.178V639.169H461.415V590.975H486.416C487.687 593.725 490.512 595.65 493.832 595.65ZM461.415 688.394V640.2H486.416C487.617 642.95 490.442 644.875 493.761 644.875C497.08 644.875 499.905 642.95 501.106 640.2H526.107V688.394H461.415Z" fill="#131213"/>
<path d="M212.532 234.438H134.351V331.306H212.532V234.438Z" fill="white"/>
<path d="M202.08 244.2H144.732V321.613H202.08V244.2Z" fill="#DDDDDD"/>
<path d="M214.793 234.438H212.533V331.306H214.793V234.438Z" fill="#DADDDF"/>
<path d="M163.943 293.494C170.793 293.494 176.373 288.063 176.373 281.394C176.373 274.725 170.793 269.294 163.943 269.294C157.092 269.294 151.513 274.725 151.513 281.394C151.513 288.063 157.092 293.494 163.943 293.494Z" fill="#45205C"/>
<path d="M194.947 313.157L182.023 293.494L169.098 312.95L194.947 313.157Z" fill="#868A91"/>
<path opacity="0.2" d="M193.675 252.588H166.838V278.713H193.675V252.588Z" fill="#131213"/>
<path d="M509.934 502.425L507.18 468.463H532.04L529.921 502.425C529.851 503.319 529.074 504.007 528.156 504.007H511.7C510.782 503.938 510.005 503.319 509.934 502.425Z" fill="#B1B5BA"/>
<path d="M507.109 465.575H509.864L511.135 462.481C511.206 462.275 511.418 462.138 511.629 462.138H528.297C528.509 462.138 528.721 462.275 528.791 462.481L530.062 465.575H532.252C532.534 465.575 532.817 465.781 532.817 466.056V467.913C532.817 468.188 532.605 468.394 532.252 468.394H507.18C506.897 468.394 506.615 468.188 506.615 467.913V466.056C506.615 465.781 506.827 465.575 507.109 465.575Z" fill="#3F4249"/>
<path opacity="0.15" d="M510.146 464.956H523.918L522.859 462.138H528.226C528.438 462.138 528.65 462.275 528.721 462.481L529.992 465.575H532.181C532.464 465.575 532.746 465.781 532.746 466.056V467.913C532.746 468.188 532.535 468.394 532.181 468.394H527.732C527.379 467.363 526.885 465.988 526.885 465.988C526.814 465.713 526.461 465.506 526.178 465.506H524.201H509.935L510.146 464.956Z" fill="#131213"/>
<path opacity="0.2" d="M507.251 469.288L507.18 468.463H532.04L529.921 502.425C529.851 503.319 529.074 504.007 528.156 504.007H526.955L526.037 470.594L507.251 469.288Z" fill="#131213"/>
<path d="M527.026 483.518C527.026 479.875 523.848 476.85 519.963 476.85C516.079 476.85 512.901 479.806 512.901 483.518" fill="#3F4249"/>
<path d="M508.593 486.2H530.981L530.557 492.869H509.158L508.593 486.2Z" fill="#3F4249"/>
<path d="M731.414 625.763L697.302 661.788L697.514 595.513H696.667L696.526 627.688L667.711 599.088L667.075 599.638L696.526 628.856L696.314 688.875H697.161L697.302 663.025V662.956L731.979 626.313L731.414 625.763Z" fill="#21252B"/>
<path d="M671.03 661.65L670.465 662.269L685.438 676.019L687.839 688.944L688.686 688.806L679.152 637.038L678.375 637.175L685.226 674.644L671.03 661.65Z" fill="#21252B"/>
<path d="M682.047 726.206H703.235C707.19 726.206 710.439 723.044 710.439 719.194V691.9H674.844V719.194C674.914 723.112 678.092 726.206 682.047 726.206Z" fill="#868A91"/>
<path d="M697.091 595.581C709.309 595.581 719.267 585.888 719.267 573.994C719.267 562.1 709.309 552.406 697.091 552.406C684.872 552.406 674.914 562.1 674.914 573.994C674.914 585.888 684.872 595.581 697.091 595.581Z" fill="#45205C"/>
<path d="M677.175 639.237C685.932 639.237 692.994 632.363 692.994 623.838C692.994 615.313 685.932 608.438 677.175 608.438C668.417 608.438 661.354 615.313 661.354 623.838C661.354 632.363 668.417 639.237 677.175 639.237Z" fill="#45205C"/>
<g opacity="0.3">
<path opacity="0.3" d="M677.175 639.237C685.932 639.237 692.994 632.363 692.994 623.838C692.994 615.313 685.932 608.438 677.175 608.438C668.417 608.438 661.354 615.313 661.354 623.838C661.354 632.363 668.417 639.237 677.175 639.237Z" fill="white"/>
</g>
<g opacity="0.3">
<path opacity="0.3" d="M697.091 595.581C709.309 595.581 719.267 585.888 719.267 573.994C719.267 562.1 709.309 552.406 697.091 552.406C684.872 552.406 674.914 562.1 674.914 573.994C674.914 585.888 684.872 595.581 697.091 595.581Z" fill="white"/>
</g>
<path d="M663.12 604.313C668.346 604.313 672.584 600.188 672.584 595.1C672.584 590.013 668.346 585.888 663.12 585.888C657.894 585.888 653.656 590.013 653.656 595.1C653.656 600.188 657.894 604.313 663.12 604.313Z" fill="#45205C"/>
<path d="M662.838 665.775C669.053 665.775 674.067 660.894 674.067 654.844C674.067 648.794 669.053 643.913 662.838 643.913C656.623 643.913 651.608 648.794 651.608 654.844C651.608 660.894 656.623 665.775 662.838 665.775Z" fill="#45205C"/>
<path d="M722.939 649.412C730.849 649.412 737.276 643.156 737.276 635.456C737.276 627.756 730.849 621.5 722.939 621.5C715.029 621.5 708.603 627.756 708.603 635.456C708.603 643.156 715.029 649.412 722.939 649.412Z" fill="#45205C"/>
<path d="M711.215 688.256H674.137C673.078 688.256 672.23 689.081 672.23 690.113C672.23 691.144 673.078 691.969 674.137 691.969H711.286C712.345 691.969 713.193 691.144 713.193 690.113C713.122 689.081 712.275 688.256 711.215 688.256Z" fill="#868A91"/>
<path d="M674.914 573.994C674.914 562.1 684.872 552.406 697.091 552.406V595.581C684.802 595.581 674.914 585.956 674.914 573.994Z" fill="#45205C"/>
<path d="M679.505 639.1C670.959 640.337 662.979 634.7 661.566 626.381C660.154 618.2 665.663 610.431 673.996 608.712L679.505 639.1Z" fill="#45205C"/>
<path opacity="0.3" d="M656.411 601.7C652.668 598.125 652.668 592.281 656.34 588.638C656.411 588.569 656.411 588.569 656.481 588.569L669.759 601.7C666.016 605.206 660.154 605.206 656.411 601.7Z" fill="#131213"/>
<path opacity="0.3" d="M670.818 662.544C666.439 666.875 659.306 666.875 654.928 662.681C650.549 658.488 650.478 651.613 654.716 647.35L671.101 662.338C671.03 662.338 670.959 662.475 670.818 662.544Z" fill="#131213"/>
<path d="M710.439 691.9H678.092C677.033 691.9 676.185 691.075 676.185 690.044C676.185 689.013 677.033 688.188 678.092 688.188H674.137C673.078 688.188 672.23 689.013 672.23 690.044C672.23 691.075 673.078 691.9 674.137 691.9H674.914V692.45V719.194C674.914 723.044 678.163 726.206 682.118 726.206H693.418C693.559 726.206 693.63 726.206 693.63 726.206C688.615 726.206 684.307 722.769 683.319 717.956L678.234 692.519H710.509L710.439 691.9Z" fill="#61656D"/>
<path opacity="0.3" d="M732.686 625.144C732.615 625.075 732.544 625.075 732.474 625.006L713.123 645.631L713.193 645.7C719.055 650.925 728.095 650.581 733.463 644.875C738.83 639.238 738.477 630.369 732.686 625.144Z" fill="#131213"/>
<path d="M458.872 501.325H410.777C410.353 501.325 410.071 501.669 410.071 502.013V503.181C410.071 503.594 410.424 503.869 410.777 503.869H458.872C459.296 503.869 459.579 503.525 459.579 503.181V502.081C459.649 501.669 459.367 501.325 458.872 501.325Z" fill="#21252B"/>
<path opacity="0.6" d="M458.872 501.325H410.777C410.353 501.325 410.071 501.669 410.071 502.013V503.181C410.071 503.594 410.424 503.869 410.777 503.869H458.872C459.296 503.869 459.579 503.525 459.579 503.181V502.081C459.649 501.669 459.367 501.325 458.872 501.325Z" fill="#131213"/>
<path d="M426.456 501.325H342.694C342.271 501.325 341.988 501.669 341.988 502.013V503.181C341.988 503.594 342.341 503.869 342.694 503.869H426.526C426.95 503.869 427.232 503.525 427.232 503.181V502.081C427.162 501.669 426.879 501.325 426.456 501.325Z" fill="#21252B"/>
<g opacity="0.6">
<path opacity="0.6" d="M457.813 501.806H372.498C372.357 501.806 372.286 501.737 372.286 501.6C372.286 501.462 372.357 501.394 372.498 501.394H457.813C457.954 501.394 458.025 501.462 458.025 501.6C458.096 501.737 457.954 501.806 457.813 501.806Z" fill="#131213"/>
</g>
<path d="M447.219 501.325H459.861C460.85 501.325 461.698 500.638 461.839 499.744L472.433 445.569C472.644 444.331 471.726 443.231 470.455 443.231H457.813C456.824 443.231 455.977 443.919 455.836 444.813L445.242 498.988C445.03 500.294 445.948 501.325 447.219 501.325Z" fill="#21252B"/>
<path opacity="0.6" d="M447.219 501.325H459.861C460.85 501.325 461.698 500.638 461.839 499.744L472.433 445.569C472.644 444.331 471.726 443.231 470.455 443.231H457.813C456.824 443.231 455.977 443.919 455.836 444.813L445.242 498.988C445.03 500.294 445.948 501.325 447.219 501.325Z" fill="#131213"/>
<path d="M376.736 501.325H457.813C458.802 501.325 459.649 500.638 459.791 499.744L470.384 445.569C470.596 444.331 469.678 443.231 468.407 443.231H387.329C386.341 443.231 385.493 443.919 385.352 444.813L374.758 498.988C374.476 500.294 375.464 501.325 376.736 501.325Z" fill="#21252B"/>
<path d="M376.806 499.4H456.824C468.336 445.156 456.824 499.4 468.336 445.156H387.471C376.806 499.4 387.471 445.225 376.806 499.4Z" fill="white"/>
<path d="M387.471 445.156L376.877 499.4H456.471H457.107L468.619 445.156H387.471Z" fill="#45205C"/>
<path opacity="0.7" d="M387.471 445.156L376.877 499.4H456.471H457.107L468.619 445.156H387.471Z" fill="white"/>
<path d="M390.225 448.249C390.578 447.974 390.649 447.493 390.366 447.218C390.084 446.943 389.589 446.943 389.236 447.287C388.883 447.562 388.812 448.043 389.095 448.318C389.377 448.593 389.872 448.593 390.225 448.249Z" fill="#45205C"/>
<path d="M393.05 448.249C393.403 447.974 393.474 447.493 393.191 447.218C392.909 446.943 392.414 446.943 392.061 447.287C391.708 447.562 391.637 448.043 391.92 448.318C392.202 448.593 392.697 448.593 393.05 448.249Z" fill="#61656D"/>
<path d="M395.804 448.249C396.157 447.974 396.228 447.493 395.946 447.218C395.663 446.943 395.169 446.943 394.816 447.287C394.462 447.562 394.392 448.043 394.674 448.318C394.957 448.593 395.451 448.593 395.804 448.249Z" fill="#21252B"/>
<path opacity="0.2" d="M452.304 456.775H409.364C409.082 456.775 408.87 456.569 408.941 456.225L409.435 453.75C409.506 453.475 409.788 453.2 410.071 453.2H453.011C453.293 453.2 453.505 453.406 453.434 453.75L452.94 456.225C452.869 456.569 452.587 456.775 452.304 456.775Z" fill="#45205C"/>
<path d="M451.598 454.506C451.386 454.231 450.962 454.231 450.609 454.506C450.327 454.781 450.186 455.194 450.397 455.469C450.609 455.675 450.962 455.744 451.245 455.537L451.527 455.881L451.669 455.744L451.386 455.4C451.739 455.125 451.739 454.781 451.598 454.506ZM451.245 455.331C451.033 455.537 450.68 455.537 450.539 455.331C450.397 455.125 450.468 454.85 450.68 454.644C450.892 454.437 451.245 454.437 451.386 454.644C451.527 454.85 451.527 455.125 451.245 455.331Z" fill="#45205C"/>
<path d="M459.649 454.644H457.601L457.672 454.438H459.649V454.644Z" fill="#45205C"/>
<path d="M459.508 455.331H457.46L457.531 455.125H459.508V455.331Z" fill="#45205C"/>
<path d="M459.367 456.019H457.319L457.389 455.812H459.367V456.019Z" fill="#45205C"/>
<path d="M403.361 494.45H383.869C383.445 494.45 383.162 494.107 383.233 493.694L389.589 461.313C389.66 460.9 390.084 460.557 390.507 460.557H410C410.424 460.557 410.706 460.9 410.636 461.313L404.279 493.694C404.209 494.107 403.785 494.45 403.361 494.45Z" fill="white"/>
<path d="M402.231 473.206C404.915 470.8 405.48 467.087 403.432 464.887C401.384 462.687 397.499 462.894 394.816 465.3C392.132 467.706 391.567 471.419 393.615 473.619C395.663 475.75 399.547 475.612 402.231 473.206Z" fill="#45205C"/>
<path opacity="0.3" d="M402.231 473.206C404.915 470.8 405.48 467.087 403.432 464.887C401.384 462.687 397.499 462.894 394.816 465.3C392.132 467.706 391.567 471.419 393.615 473.619C395.663 475.75 399.547 475.612 402.231 473.206Z" fill="white"/>
<path d="M402.231 492.044H396.581C396.44 492.044 396.369 491.907 396.369 491.769L396.652 490.394C396.652 490.257 396.793 490.119 396.934 490.119H402.584C402.726 490.119 402.796 490.257 402.796 490.394L402.514 491.769C402.514 491.907 402.373 492.044 402.231 492.044Z" fill="#45205C"/>
<path d="M386.623 490.531L386.694 490.806C386.694 490.806 386.694 490.806 386.764 490.806L387.047 490.875C387.118 490.875 387.118 490.944 387.047 491.012L386.764 491.219V491.287V491.562C386.764 491.631 386.694 491.631 386.694 491.631L386.411 491.494H386.341L386.058 491.631C385.988 491.631 385.988 491.631 385.988 491.562L386.129 491.287V491.219L385.917 491.012C385.917 490.944 385.917 490.944 385.988 490.875L386.341 490.806H386.411L386.623 490.531C386.623 490.462 386.553 490.462 386.623 490.531Z" fill="#45205C"/>
<path d="M388.177 490.531L388.248 490.806C388.248 490.806 388.248 490.806 388.318 490.806L388.601 490.875C388.671 490.875 388.671 490.944 388.601 491.012L388.318 491.219V491.287V491.562C388.318 491.631 388.248 491.631 388.248 491.631L387.965 491.494H387.894L387.612 491.631C387.541 491.631 387.541 491.631 387.541 491.562L387.683 491.287V491.219L387.471 491.012C387.471 490.944 387.471 490.944 387.541 490.875L387.894 490.806H387.965L388.177 490.531C388.177 490.462 388.106 490.462 388.177 490.531Z" fill="#45205C"/>
<path d="M389.801 490.531L389.872 490.806C389.872 490.806 389.872 490.806 389.943 490.806L390.225 490.875C390.296 490.875 390.296 490.944 390.225 491.012L389.943 491.219V491.287V491.562C389.943 491.631 389.872 491.631 389.872 491.631L389.59 491.494H389.519L389.236 491.631C389.166 491.631 389.166 491.631 389.166 491.562L389.307 491.287V491.219L389.095 491.012C389.095 490.944 389.095 490.944 389.166 490.875L389.519 490.806H389.59L389.801 490.531C389.801 490.462 389.731 490.462 389.801 490.531Z" fill="#45205C"/>
<path d="M391.355 490.531L391.426 490.806C391.426 490.806 391.426 490.806 391.496 490.806L391.779 490.875C391.849 490.875 391.849 490.944 391.779 491.012L391.496 491.219V491.287V491.562C391.496 491.631 391.426 491.631 391.426 491.631L391.143 491.494H391.072L390.79 491.631C390.719 491.631 390.719 491.631 390.719 491.562L390.861 491.287V491.219L390.649 491.012C390.649 490.944 390.649 490.944 390.719 490.875L391.072 490.806H391.143L391.355 490.531C391.355 490.462 391.284 490.462 391.355 490.531Z" fill="#45205C"/>
<path d="M392.979 490.531L393.05 490.806C393.05 490.806 393.05 490.806 393.121 490.806L393.403 490.875C393.474 490.875 393.474 490.944 393.403 491.012L393.121 491.219V491.287V491.562C393.121 491.631 393.05 491.631 393.05 491.631L392.768 491.494H392.697L392.414 491.631C392.344 491.631 392.344 491.631 392.344 491.562L392.485 491.287V491.219L392.273 491.012C392.273 490.944 392.273 490.944 392.344 490.875L392.697 490.806H392.768L392.979 490.531C392.909 490.462 392.979 490.462 392.979 490.531Z" fill="#D9DCDE"/>
<path d="M402.655 480.15H390.013C389.942 480.15 389.872 480.081 389.872 480.013L390.013 479.463C390.013 479.394 390.154 479.325 390.225 479.325H402.867C402.937 479.325 403.008 479.394 403.008 479.463L402.867 480.013C402.867 480.081 402.726 480.15 402.655 480.15Z" fill="#3F4249"/>
<path d="M403.079 482.625H388.812C388.671 482.625 388.601 482.488 388.601 482.35C388.601 482.213 388.742 482.075 388.883 482.075H403.149C403.291 482.075 403.361 482.213 403.361 482.35C403.361 482.488 403.22 482.625 403.079 482.625Z" fill="#B1B5BA"/>
<path d="M402.655 484.756H388.389C388.247 484.756 388.177 484.619 388.177 484.481C388.177 484.344 388.318 484.206 388.459 484.206H402.726C402.867 484.206 402.937 484.344 402.937 484.481C402.867 484.687 402.796 484.756 402.655 484.756Z" fill="#B1B5BA"/>
<path d="M398.982 486.956H391.143C391.002 486.956 390.931 486.819 390.931 486.681C390.931 486.544 391.072 486.406 391.214 486.406H399.053C399.194 486.406 399.265 486.544 399.265 486.681C399.265 486.888 399.124 486.956 398.982 486.956Z" fill="#B1B5BA"/>
<path opacity="0.7" d="M384.646 478.019C384.999 477.675 385.069 477.194 384.787 476.85C384.504 476.506 383.939 476.575 383.586 476.919C383.233 477.263 383.163 477.744 383.445 478.088C383.728 478.363 384.293 478.363 384.646 478.019Z" fill="white"/>
<path d="M384.152 477.882L384.364 477.745L384.081 477.47L384.434 477.194L384.364 477.057L383.869 477.47L384.152 477.882Z" fill="#45205C"/>
<path opacity="0.7" d="M458.025 478.019C458.378 477.675 458.449 477.194 458.166 476.85C457.884 476.506 457.319 476.575 456.965 476.919C456.612 477.263 456.542 477.744 456.824 478.088C457.107 478.363 457.672 478.363 458.025 478.019Z" fill="white"/>
<path d="M457.319 477.882L457.248 477.745L457.602 477.47L457.319 477.194L457.531 477.057L457.814 477.47L457.319 477.882Z" fill="#45205C"/>
<path d="M401.031 456.225H391.072C390.79 456.225 390.578 456.018 390.649 455.743L390.931 454.3C391.002 454.025 391.284 453.818 391.567 453.818H401.525C401.807 453.818 402.019 454.025 401.949 454.3L401.666 455.743C401.596 456.018 401.313 456.225 401.031 456.225Z" fill="#45205C"/>
<g opacity="0.2">
<path opacity="0.2" d="M464.523 449.969H387.753L387.824 449.831H464.523V449.969Z" fill="#45205C"/>
</g>
<path d="M451.033 494.45H431.541C431.117 494.45 430.834 494.107 430.905 493.694L437.261 461.313C437.332 460.9 437.756 460.557 438.179 460.557H457.672C458.095 460.557 458.378 460.9 458.307 461.313L451.951 493.694C451.881 494.107 451.457 494.45 451.033 494.45Z" fill="white"/>
<path d="M449.903 492.044H444.253C444.112 492.044 444.041 491.907 444.041 491.769L444.324 490.394C444.324 490.257 444.465 490.119 444.606 490.119H450.256C450.398 490.119 450.468 490.257 450.468 490.394L450.186 491.769C450.186 491.907 450.044 492.044 449.903 492.044Z" fill="#45205C"/>
<path d="M450.327 480.15H437.685C437.614 480.15 437.544 480.081 437.544 480.013L437.685 479.463C437.685 479.394 437.826 479.325 437.897 479.325H450.539C450.609 479.325 450.68 479.394 450.68 479.463L450.539 480.013C450.539 480.081 450.397 480.15 450.327 480.15Z" fill="#3F4249"/>
<path d="M450.751 482.625H436.484C436.343 482.625 436.272 482.488 436.272 482.35C436.272 482.213 436.414 482.075 436.555 482.075H450.821C450.962 482.075 451.033 482.213 451.033 482.35C451.033 482.488 450.892 482.625 450.751 482.625Z" fill="#B1B5BA"/>
<path d="M450.327 484.756H436.061C435.919 484.756 435.849 484.619 435.849 484.481C435.849 484.344 435.99 484.206 436.131 484.206H450.397C450.539 484.206 450.609 484.344 450.609 484.481C450.609 484.687 450.468 484.756 450.327 484.756Z" fill="#B1B5BA"/>
<path d="M446.654 486.956H438.815C438.674 486.956 438.603 486.819 438.603 486.681C438.603 486.544 438.744 486.406 438.886 486.406H446.725C446.866 486.406 446.937 486.544 446.937 486.681C446.937 486.888 446.796 486.956 446.654 486.956Z" fill="#B1B5BA"/>
<path opacity="0.3" d="M449.903 473.206C452.587 470.8 453.152 467.087 451.104 464.887C449.056 462.687 445.171 462.894 442.487 465.3C439.804 467.706 439.239 471.419 441.287 473.619C443.335 475.75 447.219 475.612 449.903 473.206Z" fill="#45205C"/>
<path d="M434.154 490.531L434.224 490.806C434.224 490.806 434.224 490.806 434.295 490.806L434.577 490.875C434.648 490.875 434.648 490.944 434.577 491.012L434.295 491.219V491.287V491.562C434.295 491.631 434.224 491.631 434.224 491.631L433.942 491.494H433.871L433.589 491.631C433.518 491.631 433.518 491.631 433.518 491.562L433.659 491.287V491.219L433.448 491.012C433.448 490.944 433.447 490.944 433.518 490.875L433.871 490.806H433.942L434.154 490.531C434.083 490.462 434.013 490.462 434.154 490.531Z" fill="#45205C"/>
<path d="M435.707 490.531L435.778 490.806C435.778 490.806 435.778 490.806 435.849 490.806L436.131 490.875C436.202 490.875 436.202 490.944 436.131 491.012L435.849 491.219V491.287V491.562C435.849 491.631 435.778 491.631 435.778 491.631L435.496 491.494H435.425L435.142 491.631C435.072 491.631 435.072 491.631 435.072 491.562L435.213 491.287V491.219L435.001 491.012C435.001 490.944 435.001 490.944 435.072 490.875L435.425 490.806H435.496L435.707 490.531C435.707 490.462 435.637 490.462 435.707 490.531Z" fill="#45205C"/>
<path d="M437.332 490.531L437.402 490.806C437.402 490.806 437.402 490.806 437.473 490.806L437.755 490.875C437.826 490.875 437.826 490.944 437.755 491.012L437.473 491.219V491.287V491.562C437.473 491.631 437.402 491.631 437.402 491.631L437.12 491.494H437.049L436.767 491.631C436.696 491.631 436.696 491.631 436.696 491.562L436.837 491.287V491.219L436.625 491.012C436.625 490.944 436.625 490.944 436.696 490.875L437.049 490.806H437.12L437.332 490.531C437.261 490.462 437.261 490.462 437.332 490.531Z" fill="#45205C"/>
<path d="M438.886 490.531L438.956 490.806C438.956 490.806 438.956 490.806 439.027 490.806L439.309 490.875C439.38 490.875 439.38 490.944 439.309 491.012L439.027 491.219V491.287V491.562C439.027 491.631 438.956 491.631 438.956 491.631L438.674 491.494H438.603L438.321 491.631C438.25 491.631 438.25 491.631 438.25 491.562L438.391 491.287V491.219L438.179 491.012C438.179 490.944 438.179 490.944 438.25 490.875L438.603 490.806H438.674L438.886 490.531C438.886 490.462 438.815 490.462 438.886 490.531Z" fill="#45205C"/>
<path d="M440.51 490.531L440.581 490.806C440.581 490.806 440.581 490.806 440.651 490.806L440.934 490.875C441.004 490.875 441.004 490.944 440.934 491.012L440.651 491.219V491.287V491.562C440.651 491.631 440.581 491.631 440.581 491.631L440.298 491.494H440.227L439.945 491.631C439.874 491.631 439.874 491.631 439.874 491.562L440.016 491.287V491.219L439.804 491.012C439.804 490.944 439.804 490.944 439.874 490.875L440.227 490.806H440.298L440.51 490.531C440.439 490.462 440.51 490.462 440.51 490.531Z" fill="#D9DCDE"/>
<path d="M427.162 494.45H407.669C407.246 494.45 406.963 494.107 407.034 493.694L413.39 461.313C413.461 460.9 413.884 460.557 414.308 460.557H433.801C434.224 460.557 434.507 460.9 434.436 461.313L428.08 493.694C428.009 494.107 427.586 494.45 427.162 494.45Z" fill="white"/>
<path d="M426.103 492.044H420.453C420.311 492.044 420.241 491.907 420.241 491.769L420.523 490.394C420.523 490.257 420.664 490.119 420.806 490.119H426.456C426.597 490.119 426.668 490.257 426.668 490.394L426.385 491.769C426.385 491.907 426.244 492.044 426.103 492.044Z" fill="#45205C"/>
<path d="M426.455 480.15H413.814C413.743 480.15 413.672 480.081 413.672 480.013L413.814 479.463C413.814 479.394 413.955 479.325 414.025 479.325H426.667C426.738 479.325 426.809 479.394 426.809 479.463L426.667 480.013C426.667 480.081 426.597 480.15 426.455 480.15Z" fill="#3F4249"/>
<path d="M426.879 482.625H412.613C412.472 482.625 412.401 482.488 412.401 482.35C412.401 482.213 412.543 482.075 412.684 482.075H426.95C427.091 482.075 427.162 482.213 427.162 482.35C427.162 482.488 427.021 482.625 426.879 482.625Z" fill="#B1B5BA"/>
<path d="M426.456 484.756H412.189C412.048 484.756 411.978 484.619 411.978 484.481C411.978 484.344 412.119 484.206 412.26 484.206H426.526C426.668 484.206 426.738 484.344 426.738 484.481C426.738 484.687 426.597 484.756 426.456 484.756Z" fill="#B1B5BA"/>
<path d="M422.854 486.956H415.014C414.873 486.956 414.802 486.819 414.802 486.681C414.802 486.544 414.944 486.406 415.085 486.406H422.924C423.066 486.406 423.136 486.544 423.136 486.681C423.066 486.888 422.995 486.956 422.854 486.956Z" fill="#B1B5BA"/>
<path d="M426.032 473.206C428.716 470.8 429.281 467.087 427.233 464.887C425.184 462.687 421.3 462.894 418.616 465.3C415.933 467.706 415.368 471.419 417.416 473.619C419.464 475.75 423.348 475.612 426.032 473.206Z" fill="#B1B5BA"/>
<path d="M416.921 491.219C416.921 491.219 416.851 491.219 416.921 491.219V491.562C416.921 491.631 416.851 491.631 416.851 491.631L416.568 491.494L416.356 491.425L416.709 490.6L416.78 490.531H416.851L416.921 490.806C416.921 490.806 416.921 490.806 416.992 490.806L417.274 490.875C417.345 490.875 417.345 490.944 417.274 491.013L416.921 491.219Z" fill="#D9DCDE"/>
<path d="M410.353 490.531L410.424 490.806C410.424 490.806 410.424 490.806 410.494 490.806L410.777 490.875C410.848 490.875 410.848 490.944 410.777 491.012L410.494 491.219V491.287V491.562C410.494 491.631 410.424 491.631 410.424 491.631L410.141 491.494H410.071L409.788 491.631C409.718 491.631 409.718 491.631 409.718 491.562L409.859 491.287V491.219L409.647 491.012C409.647 490.944 409.647 490.944 409.718 490.875L410.071 490.806H410.141L410.353 490.531C410.353 490.462 410.283 490.462 410.353 490.531Z" fill="#45205C"/>
<path d="M411.977 490.531L412.048 490.806C412.048 490.806 412.048 490.806 412.119 490.806L412.401 490.875C412.472 490.875 412.472 490.944 412.401 491.012L412.119 491.219V491.287V491.562C412.119 491.631 412.048 491.631 412.048 491.631L411.766 491.494H411.695L411.412 491.631C411.342 491.631 411.342 491.631 411.342 491.562L411.483 491.287V491.219L411.271 491.012C411.271 490.944 411.271 490.944 411.342 490.875L411.695 490.806H411.766L411.977 490.531C411.977 490.462 411.907 490.462 411.977 490.531Z" fill="#45205C"/>
<path d="M413.531 490.531L413.602 490.806C413.602 490.806 413.602 490.806 413.673 490.806L413.955 490.875C414.026 490.875 414.026 490.944 413.955 491.012L413.673 491.219V491.287V491.562C413.673 491.631 413.602 491.631 413.602 491.631L413.32 491.494H413.249L412.966 491.631C412.896 491.631 412.896 491.631 412.896 491.562L413.037 491.287V491.219L412.825 491.012C412.825 490.944 412.825 490.944 412.896 490.875L413.249 490.806H413.32L413.531 490.531C413.531 490.462 413.461 490.462 413.531 490.531Z" fill="#45205C"/>
<path d="M415.155 490.531L415.226 490.806C415.226 490.806 415.226 490.806 415.297 490.806L415.579 490.875C415.65 490.875 415.65 490.944 415.579 491.012L415.297 491.219V491.287V491.562C415.297 491.631 415.226 491.631 415.226 491.631L414.944 491.494H414.873L414.59 491.631C414.52 491.631 414.52 491.631 414.52 491.562L414.661 491.287V491.219L414.449 491.012C414.449 490.944 414.449 490.944 414.52 490.875L414.873 490.806H414.944L415.155 490.531C415.155 490.462 415.085 490.462 415.155 490.531Z" fill="#45205C"/>
<path d="M416.709 490.531L416.498 491.494L416.215 491.631C416.144 491.631 416.144 491.631 416.144 491.562L416.286 491.287V491.219L416.074 491.013C416.074 490.944 416.074 490.944 416.144 490.875L416.498 490.806H416.568L416.709 490.531C416.639 490.531 416.639 490.531 416.709 490.531Z" fill="#45205C"/>
<path d="M269.739 325.463L221.431 377.163C217.759 381.082 217.688 387.132 221.22 391.188L252.577 426.594L264.513 418.275L242.619 385.069L283.299 347.738L269.739 325.463Z" fill="#45205C"/>
<path d="M225.951 379.088C226.516 379.088 227.011 378.607 227.011 378.057C227.011 377.507 226.516 377.025 225.951 377.025C225.386 377.025 224.892 377.507 224.892 378.057C224.892 378.607 225.386 379.088 225.951 379.088Z" fill="white"/>
<path d="M228.07 395.932C228.635 395.932 229.129 395.45 229.129 394.9C229.129 394.35 228.635 393.869 228.07 393.869C227.505 393.869 227.011 394.35 227.011 394.9C227.011 395.45 227.505 395.932 228.07 395.932Z" fill="white"/>
<path d="M274.329 451.068L274.047 455.331L272.776 455.743L272.069 455.95L269.668 456.706C268.962 456.912 268.256 456.5 268.114 455.812C268.114 455.743 268.114 455.606 268.114 455.537C268.114 455.125 268.326 454.712 268.679 454.506L272.987 451.893L273.552 451.55L274.329 451.068Z" fill="#FC9D9D"/>
<path d="M274.329 457.394L270.233 459.525C269.597 459.869 268.821 459.594 268.538 458.906C268.326 458.425 268.467 457.875 268.821 457.531L273.906 453.062L274.329 457.394Z" fill="#FC9D9D"/>
<path opacity="0.15" d="M274.047 454.918L274.329 451.068L273.411 451.618L272.846 451.962L268.538 454.575C268.185 454.781 267.973 455.193 267.973 455.606C267.973 455.675 267.973 455.743 267.973 455.881C268.114 456.568 268.891 456.981 269.527 456.775L269.739 456.706L268.75 457.6C268.397 457.943 268.256 458.493 268.467 458.975C268.75 459.662 269.527 459.937 270.163 459.593L274.259 457.462L274.047 454.918Z" fill="#131213"/>
<path d="M279.556 440.963L264.513 418.275L253.142 426.113L264.442 436.975C265.36 437.869 265.996 439.107 266.137 440.413L266.278 441.65C266.631 444.332 268.044 446.807 270.163 448.525L272.776 450.725C273.482 451.344 273.765 452.238 273.482 453.063L271.646 459.8C271.505 460.282 271.787 460.763 272.211 461.038C272.705 461.313 273.411 461.107 273.694 460.625L280.05 447.15C280.968 445.088 280.756 442.819 279.556 440.963Z" fill="#FC9D9D"/>
<path opacity="0.15" d="M273.411 451.619L272.846 451.963C272.917 452.307 272.917 452.719 272.846 453.2L272.776 453.407L268.75 456.638C268.75 456.638 269.174 456.844 269.809 456.638L270.021 456.5L272.423 454.575L271.999 456.019L271.081 459.113L271.928 458.632L272.705 455.813L273.411 453.407C273.623 452.65 273.552 452.032 273.411 451.619Z" fill="#131213"/>
<path d="M271.999 429.068L273.835 431.818L265.148 437.868L262.747 435.325L271.999 429.068Z" fill="#3F4249"/>
<path d="M271.434 428.725L273.835 432.3C273.976 432.575 274.329 432.644 274.612 432.438C274.824 432.3 274.894 431.956 274.753 431.75L272.352 428.175C272.211 427.969 271.857 427.831 271.646 428.038C271.292 428.175 271.222 428.45 271.434 428.725Z" fill="#131213"/>
<path d="M469.113 322.3L459.508 332.132L460.144 331.719C460.991 331.169 462.192 331.375 462.827 332.132C463.11 332.475 463.251 332.888 463.251 333.3C463.251 333.85 463.039 334.4 462.545 334.813L462.262 335.019C463.11 334.332 464.311 334.538 464.946 335.363C465.158 335.707 465.299 336.05 465.299 336.394C465.299 336.875 465.087 337.357 464.734 337.7L463.887 338.457C464.664 337.769 465.935 337.838 466.571 338.732C466.782 339.007 466.924 339.35 466.924 339.694C466.924 340.107 466.782 340.45 466.5 340.794L463.463 344.369L462.404 345.675C459.579 349.113 455.765 351.657 451.457 353.032L448.208 354.063L428.716 368.5L421.371 356.813L440.792 344.988L454.141 330.55L467.206 320.238C467.771 319.757 468.619 319.825 469.184 320.375C469.466 320.65 469.608 320.994 469.608 321.338C469.537 321.682 469.396 322.025 469.113 322.3Z" fill="#FC9D9D"/>
<path opacity="0.15" d="M449.338 350.762L446.513 351.656C446.231 351.725 445.948 351.862 445.666 352.069L426.314 365.75L428.574 368.637L448.067 354.2L451.316 353.169C455.624 351.794 459.438 349.25 462.263 345.812L463.322 344.506L466.359 340.931C466.641 340.587 466.783 340.244 466.783 339.831L462.333 344.231C459.508 347.737 453.646 349.387 449.338 350.762Z" fill="#131213"/>
<path d="M365.436 610.362L374.829 680.625C375.182 682.894 375.959 685.025 377.089 687.087L392.556 715.344L388.954 720.156L374.829 713.281L362.258 691.144C362.328 687.362 361.763 683.65 360.562 680.075L341.141 610.362H365.436Z" fill="#FC9D9D"/>
<path opacity="0.15" d="M374.758 692.244C373.628 690.25 371.509 685.3 371.086 683.031L360.916 628.65C360.421 625.969 358.514 623.7 355.972 622.669L343.118 617.513L342.553 615.45L366.919 621.019L374.899 680.556C375.253 682.825 376.029 684.956 377.159 687.019L392.626 715.275L390.437 718.85L374.758 692.244Z" fill="#131213"/>
<path d="M402.443 719.744L392.485 715.344C387.118 716.169 381.679 714.244 378.219 710.119L362.187 691.144C359.291 697.194 358.232 703.931 359.221 710.531L361.551 726.275H363.388L363.882 710.119C363.953 708.95 365.436 708.469 366.213 709.362L376.029 721.05C378.854 724.35 383.021 726.275 387.4 726.275H405.198C406.398 726.275 407.175 725.106 406.751 724.006C405.974 722.15 404.421 720.637 402.443 719.744Z" fill="#45205C"/>
<path d="M288.031 681.175C287.254 687.706 286.901 694.306 286.971 700.906L287.113 708.744C286.971 712.181 284.076 714.931 280.545 714.931H279.485C275.46 714.931 272.423 711.494 272.988 707.644L274.824 698.362C275.742 693.619 276.095 688.806 275.813 683.994L270.586 593.312L295.8 600.325L288.031 681.175Z" fill="#FC9D9D"/>
<path d="M345.166 436.769L366.919 621.569L270.798 597.575L269.809 527.656C269.456 497.544 271.081 467.569 278.708 438.419L279.203 436.562L345.166 436.769Z" fill="#3F4249"/>
<path opacity="0.15" d="M295.376 603.625L288.031 681.175C287.678 683.856 287.466 686.537 287.254 689.287V689.356C287.042 693.206 286.901 697.056 286.971 700.906L287.113 708.744C286.971 712.112 284.288 714.725 280.898 714.931C284.005 712.594 283.723 708.812 283.793 705.994L289.302 612.012C289.443 609.125 287.819 606.444 285.065 605.206L270.869 598.881L270.798 597.644L295.376 603.625Z" fill="#131213"/>
<path opacity="0.2" d="M303.286 443.713C315.08 443.713 325.038 452.169 326.592 463.582L349.263 617.238L366.848 621.638L345.873 443.782L303.286 443.713Z" fill="#131213"/>
<path d="M283.581 694.856C285.841 694.856 287.748 692.794 287.96 694.856C288.031 695.612 288.101 696.506 288.101 697.331L288.172 714.587C288.101 717.612 287.183 720.569 285.559 723.181L285.206 723.8C284.217 725.312 282.451 726.275 280.544 726.275H275.106C272.634 726.275 270.516 724.694 269.88 722.494C269.174 719.95 269.103 717.269 269.598 714.656L274.118 696.162C274.259 695.475 274.471 694.787 274.683 694.031C275.248 692.312 276.943 694.787 278.92 694.787H283.581V694.856Z" fill="#45205C"/>
<path opacity="0.15" d="M283.581 695.544C285.841 695.544 287.748 692.725 287.96 694.856C288.031 695.612 288.101 696.506 288.101 697.331L288.172 714.587C288.101 717.612 287.183 720.569 285.559 723.181L285.206 723.8C284.217 725.312 282.451 726.275 280.544 726.275H275.106C272.634 726.275 270.516 724.694 269.88 722.494C269.174 719.95 269.103 717.269 269.598 714.656L274.118 696.162C274.259 695.475 274.471 694.787 274.683 694.031C275.248 692.312 276.943 695.475 278.92 695.475H283.581V695.544Z" fill="#131213"/>
<path d="M288.101 705.925L287.678 705.444C286.053 703.656 283.087 704.55 282.734 706.887L279.626 726.344H276.166L276.872 707.231C276.943 704.825 274.047 703.45 272.14 705.031L275.106 693.275C275.389 692.244 276.519 691.625 277.578 692.037L279.203 692.656C280.756 693.275 282.522 693.275 284.146 692.725L285.771 692.175C286.971 691.762 288.243 692.656 288.243 693.894V705.925H288.101Z" fill="#45205C"/>
<path d="M338.951 290.469L337.821 281.119L332.454 268.95H312.043L300.602 273.488L308.583 305.181L301.52 317.006L279.626 322.231L312.467 333.369L335.561 321.888L324.756 319.619L324.12 311.3H327.086C333.16 311.3 337.186 307.725 338.81 300.919L339.587 297.206V297.069C340.929 297 341.988 295.831 341.847 294.456C341.776 293.563 341.211 292.806 340.435 292.463C339.728 292.119 339.163 291.363 338.951 290.469Z" fill="#FC9D9D"/>
<path d="M390.508 390.843L352.158 361.625C352.37 362.587 352.582 365.75 352.582 366.712C352.582 368.225 352.37 369.668 351.946 371.112C351.17 373.725 349.686 376.062 347.78 377.987L345.59 380.256C345.166 380.668 344.955 381.218 344.955 381.837L345.166 436.768H278.991L267.973 361.968L266.843 332.131C266.843 327.318 270.233 323.193 277.72 322.162L291.703 319.412C297.495 324.843 317.058 325.806 328.993 320.443L338.951 322.643C344.743 324.087 348.627 326.562 352.511 330.137L398.488 369.187L427.303 353.1L435.92 364.512L402.443 390.843C399.053 393.456 394.039 393.525 390.508 390.843Z" fill="#45205C"/>
<path opacity="0.6" d="M427.374 353.031L435.99 364.444L433.094 366.713L424.054 354.888L427.374 353.031Z" fill="#131213"/>
<path opacity="0.6" d="M264.583 418.206L252.577 426.525L250.176 423.775L262.465 415.044L264.583 418.206Z" fill="#131213"/>
<path opacity="0.6" d="M329.064 320.375C329.064 320.375 322.92 323.882 306.676 323.744C306.676 323.744 296.718 323.744 289.09 319.275L283.935 320.719C290.573 325.119 312.75 331.719 333.231 321.269L329.064 320.375Z" fill="#131213"/>
<path opacity="0.15" d="M324.191 311.3L320.448 311.094C320.024 311.094 319.812 311.575 320.094 311.85L324.544 315.631L324.191 311.3Z" fill="#131213"/>
<path opacity="0.15" d="M397.994 386.856C394.745 389.263 390.296 389.538 386.764 387.544L381.397 383.9L390.578 390.912C394.321 393.731 399.194 393.525 402.796 390.638L435.99 364.513L433.306 360.938L397.994 386.856Z" fill="#131213"/>
<path opacity="0.15" d="M398.559 369.188L391.779 363L393.686 369.875C393.968 370.838 395.098 371.25 395.946 370.769L398.559 369.188Z" fill="#131213"/>
<g opacity="0.15">
<path opacity="0.15" d="M352.229 362.656C352.087 362.656 352.017 362.656 351.946 362.519L342.553 355.163C342.341 355.025 342.341 354.681 342.482 354.475C342.624 354.269 342.977 354.269 343.189 354.406L352.582 361.763C352.794 361.9 352.794 362.244 352.652 362.45C352.511 362.588 352.37 362.656 352.229 362.656Z" fill="#131213"/>
</g>
<path d="M278.991 436.769L277.437 443.712H346.014L345.166 436.769H278.991Z" fill="#21252B"/>
<path d="M340.929 330.412C341.494 330.412 341.988 329.931 341.988 329.381C341.988 328.831 341.494 328.35 340.929 328.35C340.364 328.35 339.869 328.831 339.869 329.381C339.869 329.931 340.364 330.412 340.929 330.412Z" fill="white"/>
<path d="M324.685 357.432C325.25 357.432 325.744 356.95 325.744 356.4C325.744 355.85 325.25 355.369 324.685 355.369C324.12 355.369 323.625 355.85 323.625 356.4C323.625 356.95 324.12 357.432 324.685 357.432Z" fill="white"/>
<path d="M268.468 331.856C269.033 331.856 269.527 331.375 269.527 330.825C269.527 330.275 269.033 329.794 268.468 329.794C267.903 329.794 267.408 330.275 267.408 330.825C267.408 331.375 267.903 331.856 268.468 331.856Z" fill="white"/>
<path d="M245.938 377.025C246.503 377.025 246.998 376.544 246.998 375.994C246.998 375.444 246.503 374.963 245.938 374.963C245.373 374.963 244.879 375.444 244.879 375.994C244.879 376.544 245.373 377.025 245.938 377.025Z" fill="white"/>
<path d="M249.399 415.044C249.964 415.044 250.458 414.563 250.458 414.013C250.458 413.463 249.964 412.981 249.399 412.981C248.834 412.981 248.339 413.463 248.339 414.013C248.339 414.563 248.834 415.044 249.399 415.044Z" fill="white"/>
<path d="M262.323 357.432C262.888 357.432 263.382 356.95 263.382 356.4C263.382 355.85 262.888 355.369 262.323 355.369C261.758 355.369 261.264 355.85 261.264 356.4C261.264 356.95 261.758 357.432 262.323 357.432Z" fill="white"/>
<path d="M243.82 358.531C244.385 358.531 244.879 358.05 244.879 357.5C244.879 356.95 244.385 356.469 243.82 356.469C243.255 356.469 242.76 356.95 242.76 357.5C242.76 358.05 243.255 358.531 243.82 358.531Z" fill="white"/>
<path d="M244.879 395.932C245.444 395.932 245.938 395.45 245.938 394.9C245.938 394.35 245.444 393.869 244.879 393.869C244.314 393.869 243.819 394.35 243.819 394.9C243.819 395.45 244.314 395.932 244.879 395.932Z" fill="white"/>
<path d="M319.459 381.15C320.024 381.15 320.518 380.669 320.518 380.119C320.518 379.569 320.024 379.088 319.459 379.088C318.894 379.088 318.399 379.569 318.399 380.119C318.399 380.669 318.894 381.15 319.459 381.15Z" fill="white"/>
<path d="M321.577 406.175C322.142 406.175 322.637 405.694 322.637 405.144C322.637 404.594 322.142 404.112 321.577 404.112C321.012 404.112 320.518 404.594 320.518 405.144C320.518 405.694 321.012 406.175 321.577 406.175Z" fill="white"/>
<path d="M319.459 436.7C320.024 436.7 320.518 436.219 320.518 435.669C320.518 435.119 320.024 434.638 319.459 434.638C318.894 434.638 318.399 435.119 318.399 435.669C318.399 436.219 318.894 436.7 319.459 436.7Z" fill="white"/>
<path d="M339.304 423.912C339.869 423.912 340.364 423.431 340.364 422.881C340.364 422.331 339.869 421.85 339.304 421.85C338.739 421.85 338.245 422.331 338.245 422.881C338.245 423.431 338.739 423.912 339.304 423.912Z" fill="white"/>
<path d="M279.555 372.969C280.12 372.969 280.615 372.488 280.615 371.938C280.615 371.388 280.12 370.906 279.555 370.906C278.99 370.906 278.496 371.388 278.496 371.938C278.496 372.488 278.99 372.969 279.555 372.969Z" fill="white"/>
<path d="M300.037 392.15C300.602 392.15 301.096 391.669 301.096 391.119C301.096 390.569 300.602 390.088 300.037 390.088C299.472 390.088 298.978 390.569 298.978 391.119C298.978 391.669 299.472 392.15 300.037 392.15Z" fill="white"/>
<path d="M298.977 413.943C299.542 413.943 300.037 413.462 300.037 412.912C300.037 412.362 299.542 411.881 298.977 411.881C298.412 411.881 297.918 412.362 297.918 412.912C297.918 413.462 298.412 413.943 298.977 413.943Z" fill="white"/>
<path d="M290.291 433.537C290.856 433.537 291.35 433.056 291.35 432.506C291.35 431.956 290.856 431.475 290.291 431.475C289.726 431.475 289.231 431.956 289.231 432.506C289.231 433.056 289.726 433.537 290.291 433.537Z" fill="white"/>
<path d="M278.496 405.144C279.061 405.144 279.556 404.662 279.556 404.112C279.556 403.562 279.061 403.081 278.496 403.081C277.931 403.081 277.437 403.562 277.437 404.112C277.437 404.662 277.931 405.144 278.496 405.144Z" fill="white"/>
<path d="M340.364 400.675C340.929 400.675 341.423 400.194 341.423 399.644C341.423 399.094 340.929 398.612 340.364 398.612C339.799 398.612 339.304 399.094 339.304 399.644C339.304 400.194 339.799 400.675 340.364 400.675Z" fill="white"/>
<path d="M298.977 363.963C299.542 363.963 300.037 363.482 300.037 362.932C300.037 362.382 299.542 361.9 298.977 361.9C298.412 361.9 297.918 362.382 297.918 362.932C297.918 363.482 298.412 363.963 298.977 363.963Z" fill="white"/>
<path d="M315.716 332.956C316.281 332.956 316.775 332.475 316.775 331.925C316.775 331.375 316.281 330.894 315.716 330.894C315.151 330.894 314.656 331.375 314.656 331.925C314.656 332.475 315.151 332.956 315.716 332.956Z" fill="white"/>
<path d="M348.062 353.031C348.627 353.031 349.121 352.55 349.121 352C349.121 351.45 348.627 350.969 348.062 350.969C347.497 350.969 347.002 351.45 347.002 352C347.002 352.55 347.497 353.031 348.062 353.031Z" fill="white"/>
<path d="M345.59 375.925C346.155 375.925 346.649 375.444 346.649 374.894C346.649 374.344 346.155 373.862 345.59 373.862C345.025 373.862 344.531 374.344 344.531 374.894C344.531 375.444 345.025 375.925 345.59 375.925Z" fill="white"/>
<path d="M371.015 350.281C371.58 350.281 372.074 349.8 372.074 349.25C372.074 348.7 371.58 348.219 371.015 348.219C370.45 348.219 369.956 348.7 369.956 349.25C369.956 349.8 370.45 350.281 371.015 350.281Z" fill="white"/>
<path d="M390.72 381.219C391.285 381.219 391.779 380.738 391.779 380.188C391.779 379.638 391.285 379.156 390.72 379.156C390.155 379.156 389.66 379.638 389.66 380.188C389.66 380.738 390.155 381.219 390.72 381.219Z" fill="white"/>
<path d="M374.758 368.706C375.323 368.706 375.817 368.225 375.817 367.675C375.817 367.125 375.323 366.644 374.758 366.644C374.193 366.644 373.699 367.125 373.699 367.675C373.699 368.225 374.193 368.706 374.758 368.706Z" fill="white"/>
<path d="M414.167 378.057C414.732 378.057 415.226 377.575 415.226 377.025C415.226 376.475 414.732 375.994 414.167 375.994C413.602 375.994 413.107 376.475 413.107 377.025C413.107 377.575 413.602 378.057 414.167 378.057Z" fill="white"/>
<path d="M424.054 359.563C424.619 359.563 425.114 359.081 425.114 358.531C425.114 357.981 424.619 357.5 424.054 357.5C423.489 357.5 422.995 357.981 422.995 358.531C422.995 359.081 423.489 359.563 424.054 359.563Z" fill="white"/>
<path opacity="0.15" d="M266.702 351.175L240.218 378.537C239.441 379.294 239.37 380.462 240.006 381.356L242.619 385L267.903 361.9L266.702 351.175Z" fill="#131213"/>
<path d="M301.591 349.25L300.884 348.494C308.512 341.825 307.029 335.225 304.274 327.25C300.037 315.013 306.887 310.613 307.17 310.406L307.735 311.3L307.452 310.888L307.735 311.3C307.452 311.437 301.308 315.494 305.263 326.906C307.523 333.438 310.348 341.55 301.591 349.25Z" fill="#21252B"/>
<path d="M326.451 260.563C330.829 262.35 335.491 265.719 339.446 271.906L340.364 271.356C333.301 260.288 323.838 257.95 317.481 257.813C291.491 254.1 277.366 284.35 293.963 306.213C295.376 308.069 295.941 310.406 295.376 312.606C294.104 318.381 287.536 317.075 278.073 324.363C263.877 335.294 263.877 356.056 263.877 356.056L265.784 356.744L267.549 354.269L266.984 357.088L280.615 361.763C282.804 355.781 287.042 351.519 287.042 351.519C285.276 354.819 283.652 360.113 282.946 362.588L294.74 366.644C291.209 349.319 307.735 347.531 303.568 330.688C300.814 319.55 308.088 311.3 308.088 311.3L311.125 310.269C338.104 301.194 333.584 274.794 333.584 274.794C335.703 274.931 337.609 281.119 337.609 281.119L340.858 279.538C340.929 279.538 337.963 266.544 326.451 260.563Z" fill="#21252B"/>
<path d="M294.811 314.256C302.156 313.568 304.133 318.725 304.133 318.725C308.159 318.381 306.888 314.6 306.888 314.6C303.498 308.618 295.517 309.512 295.517 309.512C295.517 309.512 293.61 309.512 293.116 312.056C292.621 314.6 294.811 314.256 294.811 314.256Z" fill="#45205C"/>
<path d="M338.174 296.175C336.479 296.175 335.561 292.669 335.561 289.3C335.561 285.931 336.479 282.425 338.174 282.425C339.869 282.425 340.788 285.931 340.788 289.3C340.788 292.669 339.799 296.175 338.174 296.175ZM338.174 283.25C337.398 283.25 336.338 285.587 336.338 289.369C336.338 293.15 337.398 295.487 338.174 295.487C338.951 295.487 340.011 293.15 340.011 289.369C340.011 285.587 338.881 283.25 338.174 283.25Z" fill="#21252B"/>
<path opacity="0.15" d="M345.59 380.188L341.917 383.694C338.669 386.719 336.833 390.981 336.833 395.381V436.631L345.237 436.838L345.025 381.906C344.954 381.769 344.884 381.013 345.59 380.188Z" fill="#131213"/>
<path opacity="0.15" d="M338.81 301.125C338.739 301.125 337.044 300.919 335.914 299.681L336.479 299.062C337.539 300.231 339.022 300.369 339.022 300.369L338.81 301.125Z" fill="#131213"/>
<path d="M175.313 563.269C174.607 558.731 171.57 555.225 167.615 553.506L168.533 552.475H162.247C161.753 552.475 161.329 552.544 160.835 552.544L94.7298 560.725C87.3141 561.619 81.3816 566.775 79.4748 573.788L38.7241 726.206H48.541L88.656 576.194C89.5741 572.894 92.3991 570.419 95.8598 570.006L161.965 561.825C163.872 561.619 165.567 562.856 165.849 564.713L191.133 726.344H200.738L175.313 563.269Z" fill="#B2B6BB"/>
<path d="M54.6152 726.275H44.7983L85.549 573.856C87.4558 566.844 93.3883 561.756 100.804 560.794L166.909 552.612C173.971 551.719 180.328 556.394 181.387 563.269L206.883 726.275H197.278L171.994 564.712C171.711 562.856 170.016 561.619 168.11 561.825L102.005 570.006C98.4733 570.419 95.6483 572.894 94.8008 576.194L54.6152 726.275Z" fill="#868A91"/>
<path d="M281.392 620.194H123.757C120.296 620.194 117.471 617.444 117.471 614.075C117.471 610.706 120.296 607.956 123.757 607.956H281.392C284.852 607.956 287.677 610.706 287.677 614.075C287.677 617.444 284.852 620.194 281.392 620.194Z" fill="#3F4249"/>
<path d="M146.357 620.194H57.1577C53.6971 620.194 50.8721 617.444 50.8721 614.075C50.8721 610.706 53.6971 607.956 57.1577 607.956H146.357C149.818 607.956 152.643 610.706 152.643 614.075C152.643 617.444 149.818 620.194 146.357 620.194Z" fill="#61656D"/>
<path d="M149.111 475.956C148.334 473 145.651 470.938 142.472 470.938H50.2362C45.8575 470.938 42.5381 474.925 43.5975 479.119L73.9662 607.956H182.517L149.111 475.956Z" fill="#3F4249"/>
<path d="M135.551 475.956C134.774 473 132.091 470.938 128.912 470.938H36.6762C32.2974 470.938 28.978 474.925 30.0374 479.119L61.8187 607.956H168.957L135.551 475.956Z" fill="#61656D"/>
<path opacity="0.3" d="M61.5361 606.65L158.928 606.719L158.575 607.887H61.8186L61.5361 606.65Z" fill="#131213"/>
<path d="M263.524 563.269C262.818 558.731 259.781 555.225 255.826 553.506L256.744 552.475H250.458C249.964 552.475 249.54 552.544 249.046 552.544L182.941 560.725C175.525 561.619 169.593 566.775 167.686 573.788L126.935 726.206H136.752L176.867 576.056C177.785 572.756 180.61 570.281 184.071 569.869L250.176 561.688C252.083 561.481 253.778 562.719 254.06 564.575L279.344 726.206H288.949L263.524 563.269Z" fill="#B2B6BB"/>
<path d="M142.826 726.275H133.009L173.759 573.856C175.666 566.844 181.599 561.756 189.014 560.794L255.119 552.612C262.182 551.719 268.538 556.394 269.598 563.269L295.093 726.275H285.488L260.204 564.644C259.922 562.787 258.227 561.55 256.32 561.756L190.215 569.937C186.684 570.35 183.859 572.825 183.011 576.125L142.826 726.275Z" fill="#868A91"/>
<path d="M763.125 170.088H364.588V171.05H763.125V170.088Z" fill="#45205C"/>
<path opacity="0.5" d="M763.125 170.088H364.588V171.05H763.125V170.088Z" fill="white"/>
</svg>
