<svg width="26" height="20" viewBox="0 0 26 20" fill="none" xmlns="http://www.w3.org/2000/svg">
<path fill-rule="evenodd" clip-rule="evenodd" d="M10.6666 19.5482C10.4673 19.7471 10.1973 19.8589 9.91573 19.8589C9.63417 19.8589 9.36412 19.7471 9.1649 19.5482L0.310732 10.694C0.11176 10.4948 0 10.2247 0 9.94317C0 9.66161 0.11176 9.39156 0.310732 9.19234L9.1649 0.33817C9.26217 0.23378 9.37947 0.150052 9.5098 0.0919799C9.64014 0.033908 9.78083 0.00268247 9.92349 0.000165357C10.0662 -0.00235175 10.2079 0.0238911 10.3402 0.0773292C10.4725 0.130767 10.5926 0.210306 10.6935 0.311199C10.7944 0.412092 10.874 0.532273 10.9274 0.664573C10.9808 0.796873 11.0071 0.938581 11.0046 1.08124C11.0021 1.22391 10.9708 1.3646 10.9128 1.49493C10.8547 1.62526 10.771 1.74257 10.6666 1.83984L3.62573 8.88067H24.0824C24.3642 8.88067 24.6344 8.99261 24.8337 9.19187C25.033 9.39113 25.1449 9.66138 25.1449 9.94317C25.1449 10.225 25.033 10.4952 24.8337 10.6945C24.6344 10.8937 24.3642 11.0057 24.0824 11.0057H3.62573L10.6666 18.0465C10.8655 18.2457 10.9773 18.5158 10.9773 18.7973C10.9773 19.0789 10.8655 19.349 10.6666 19.5482Z" fill="#45205C"/>
</svg>
