<svg width="489" height="137" viewBox="0 0 489 137" fill="none" xmlns="http://www.w3.org/2000/svg">
<path d="M6.72 93V25.8H25.728V77.928H57.792V93H6.72ZM64.4498 93V40.968H82.6898V93H64.4498ZM73.5698 35.208C70.2418 35.208 67.5538 34.28 65.5058 32.424C63.4578 30.568 62.4338 28.264 62.4338 25.512C62.4338 22.76 63.4578 20.456 65.5058 18.6C67.5538 16.744 70.2418 15.816 73.5698 15.816C76.8978 15.816 79.5858 16.712 81.6338 18.504C83.6818 20.232 84.7058 22.472 84.7058 25.224C84.7058 28.104 83.6818 30.504 81.6338 32.424C79.6498 34.28 76.9618 35.208 73.5698 35.208ZM128.432 40.104C132.464 40.104 136.112 40.936 139.375 42.6C142.64 44.2 145.2 46.696 147.056 50.088C148.976 53.48 149.936 57.864 149.936 63.24V93H131.696V66.216C131.696 62.504 130.928 59.816 129.392 58.152C127.92 56.424 125.84 55.56 123.152 55.56C121.232 55.56 119.472 56.008 117.872 56.904C116.272 57.736 115.024 59.048 114.128 60.84C113.232 62.632 112.784 64.968 112.784 67.848V93H94.5435V40.968H111.92V55.752L108.56 51.432C110.544 47.656 113.264 44.84 116.72 42.984C120.176 41.064 124.08 40.104 128.432 40.104ZM176.555 83.4L177.035 61.608L198.251 40.968H219.851L196.331 65.256L187.019 72.744L176.555 83.4ZM161.387 93V21.768H179.627V93H161.387ZM199.595 93L183.659 73.032L194.987 59.016L221.675 93H199.595Z" fill="#131213"/>
<path d="M259.12 93.864C252.976 93.864 247.6 92.712 242.992 90.408C238.448 88.04 234.896 84.84 232.336 80.808C229.84 76.712 228.592 72.072 228.592 66.888C228.592 61.704 229.808 57.096 232.24 53.064C234.736 48.968 238.16 45.8 242.512 43.56C246.864 41.256 251.76 40.104 257.2 40.104C262.32 40.104 266.992 41.16 271.216 43.272C275.44 45.32 278.8 48.36 281.296 52.392C283.792 56.424 285.04 61.32 285.04 67.08C285.04 67.72 285.008 68.456 284.944 69.288C284.88 70.12 284.816 70.888 284.752 71.592H243.568V61.992H275.056L268.144 64.68C268.208 62.312 267.76 60.264 266.8 58.536C265.904 56.808 264.624 55.464 262.96 54.504C261.36 53.544 259.472 53.064 257.296 53.064C255.12 53.064 253.2 53.544 251.536 54.504C249.936 55.464 248.688 56.84 247.792 58.632C246.896 60.36 246.448 62.408 246.448 64.776V67.56C246.448 70.12 246.96 72.328 247.984 74.184C249.072 76.04 250.608 77.48 252.592 78.504C254.576 79.464 256.944 79.944 259.696 79.944C262.256 79.944 264.432 79.592 266.224 78.888C268.08 78.12 269.904 76.968 271.696 75.432L281.296 85.416C278.8 88.168 275.728 90.28 272.08 91.752C268.432 93.16 264.112 93.864 259.12 93.864Z" fill="#A54BDC"/>
<path d="M293.72 93V25.8H325.496C332.92 25.8 339.448 27.176 345.08 29.928C350.712 32.68 355.096 36.552 358.232 41.544C361.432 46.536 363.032 52.488 363.032 59.4C363.032 66.248 361.432 72.2 358.232 77.256C355.096 82.248 350.712 86.12 345.08 88.872C339.448 91.624 332.92 93 325.496 93H293.72ZM312.728 77.832H324.728C328.568 77.832 331.896 77.128 334.712 75.72C337.592 74.248 339.832 72.136 341.432 69.384C343.032 66.568 343.832 63.24 343.832 59.4C343.832 55.496 343.032 52.168 341.432 49.416C339.832 46.664 337.592 44.584 334.712 43.176C331.896 41.704 328.568 40.968 324.728 40.968H312.728V77.832ZM399.433 93.864C393.289 93.864 387.913 92.712 383.305 90.408C378.761 88.04 375.209 84.84 372.648 80.808C370.153 76.712 368.905 72.072 368.905 66.888C368.905 61.704 370.121 57.096 372.553 53.064C375.049 48.968 378.473 45.8 382.825 43.56C387.177 41.256 392.073 40.104 397.513 40.104C402.633 40.104 407.305 41.16 411.529 43.272C415.753 45.32 419.113 48.36 421.609 52.392C424.105 56.424 425.353 61.32 425.353 67.08C425.353 67.72 425.321 68.456 425.257 69.288C425.193 70.12 425.129 70.888 425.065 71.592H383.881V61.992H415.369L408.457 64.68C408.521 62.312 408.073 60.264 407.113 58.536C406.217 56.808 404.937 55.464 403.273 54.504C401.673 53.544 399.785 53.064 397.609 53.064C395.433 53.064 393.513 53.544 391.849 54.504C390.249 55.464 389.001 56.84 388.105 58.632C387.209 60.36 386.761 62.408 386.761 64.776V67.56C386.761 70.12 387.273 72.328 388.297 74.184C389.385 76.04 390.921 77.48 392.905 78.504C394.889 79.464 397.257 79.944 400.009 79.944C402.569 79.944 404.745 79.592 406.537 78.888C408.393 78.12 410.217 76.968 412.009 75.432L421.609 85.416C419.113 88.168 416.041 90.28 412.393 91.752C408.745 93.16 404.425 93.864 399.433 93.864ZM447.321 93L425.913 40.968H444.633L461.721 84.456H452.313L470.265 40.968H487.641L466.137 93H447.321Z" fill="#131213"/>
</svg>
